ISO-10303-21;
HEADER;
/* Generated by software containing ST-Developer
 * from STEP Tools, Inc. (www.steptools.com) 
 */

FILE_DESCRIPTION(
/* description */ (''),
/* implementation_level */ '2;1');

FILE_NAME(
/* name */ '',
/* time_stamp */ '2026-07-20T15:07:33+08:00',
/* author */ ('test'),
/* organization */ (''),
/* preprocessor_version */ 'ST-DEVELOPER v20',
/* originating_system */ 'Autodesk Inventor 2025',
/* authorisation */ '');

FILE_SCHEMA (('AUTOMOTIVE_DESIGN { 1 0 10303 214 3 1 1 }'));
ENDSEC;

DATA;
#10=MECHANICAL_DESIGN_GEOMETRIC_PRESENTATION_REPRESENTATION('',(#13),#576);
#11=SHAPE_REPRESENTATION_RELATIONSHIP('SRR','None',#583,#12);
#12=ADVANCED_BREP_SHAPE_REPRESENTATION('',(#14),#575);
#13=STYLED_ITEM('',(#592),#14);
#14=MANIFOLD_SOLID_BREP('\X2\5B9E4F53\X0\1',#319);
#15=PLANE('',#353);
#16=PLANE('',#357);
#17=PLANE('',#367);
#18=PLANE('',#370);
#19=PLANE('',#371);
#20=PLANE('',#382);
#21=FACE_BOUND('',#51,.T.);
#22=FACE_BOUND('',#56,.T.);
#23=FACE_BOUND('',#57,.T.);
#24=FACE_BOUND('',#58,.T.);
#25=FACE_BOUND('',#59,.T.);
#26=FACE_BOUND('',#60,.T.);
#27=FACE_BOUND('',#66,.T.);
#28=FACE_BOUND('',#67,.T.);
#29=FACE_BOUND('',#68,.T.);
#30=FACE_BOUND('',#69,.T.);
#31=FACE_BOUND('',#70,.T.);
#32=FACE_OUTER_BOUND('',#49,.T.);
#33=FACE_OUTER_BOUND('',#50,.T.);
#34=FACE_OUTER_BOUND('',#52,.T.);
#35=FACE_OUTER_BOUND('',#53,.T.);
#36=FACE_OUTER_BOUND('',#54,.T.);
#37=FACE_OUTER_BOUND('',#55,.T.);
#38=FACE_OUTER_BOUND('',#61,.T.);
#39=FACE_OUTER_BOUND('',#62,.T.);
#40=FACE_OUTER_BOUND('',#63,.T.);
#41=FACE_OUTER_BOUND('',#64,.T.);
#42=FACE_OUTER_BOUND('',#65,.T.);
#43=FACE_OUTER_BOUND('',#71,.T.);
#44=FACE_OUTER_BOUND('',#72,.T.);
#45=FACE_OUTER_BOUND('',#73,.T.);
#46=FACE_OUTER_BOUND('',#74,.T.);
#47=FACE_OUTER_BOUND('',#75,.T.);
#48=FACE_OUTER_BOUND('',#76,.T.);
#49=EDGE_LOOP('',(#207,#208,#209,#210));
#50=EDGE_LOOP('',(#211,#212,#213,#214));
#51=EDGE_LOOP('',(#215,#216,#217,#218));
#52=EDGE_LOOP('',(#219,#220,#221,#222));
#53=EDGE_LOOP('',(#223,#224,#225,#226));
#54=EDGE_LOOP('',(#227,#228,#229,#230));
#55=EDGE_LOOP('',(#231,#232,#233,#234,#235,#236,#237,#238));
#56=EDGE_LOOP('',(#239));
#57=EDGE_LOOP('',(#240));
#58=EDGE_LOOP('',(#241));
#59=EDGE_LOOP('',(#242));
#60=EDGE_LOOP('',(#243));
#61=EDGE_LOOP('',(#244,#245,#246,#247));
#62=EDGE_LOOP('',(#248,#249,#250,#251));
#63=EDGE_LOOP('',(#252,#253,#254,#255));
#64=EDGE_LOOP('',(#256));
#65=EDGE_LOOP('',(#257,#258,#259,#260,#261,#262,#263,#264));
#66=EDGE_LOOP('',(#265));
#67=EDGE_LOOP('',(#266));
#68=EDGE_LOOP('',(#267));
#69=EDGE_LOOP('',(#268));
#70=EDGE_LOOP('',(#269));
#71=EDGE_LOOP('',(#270,#271,#272,#273));
#72=EDGE_LOOP('',(#274,#275,#276,#277));
#73=EDGE_LOOP('',(#278,#279,#280,#281));
#74=EDGE_LOOP('',(#282,#283,#284,#285));
#75=EDGE_LOOP('',(#286,#287,#288,#289));
#76=EDGE_LOOP('',(#290));
#77=LINE('',#491,#95);
#78=LINE('',#494,#96);
#79=LINE('',#499,#97);
#80=LINE('',#505,#98);
#81=LINE('',#510,#99);
#82=LINE('',#514,#100);
#83=LINE('',#516,#101);
#84=LINE('',#517,#102);
#85=LINE('',#522,#103);
#86=LINE('',#529,#104);
#87=LINE('',#542,#105);
#88=LINE('',#545,#106);
#89=LINE('',#547,#107);
#90=LINE('',#563,#108);
#91=LINE('',#565,#109);
#92=LINE('',#567,#110);
#93=LINE('',#569,#111);
#94=LINE('',#571,#112);
#95=VECTOR('',#389,10.);
#96=VECTOR('',#392,10.);
#97=VECTOR('',#397,4.4);
#98=VECTOR('',#404,10.);
#99=VECTOR('',#409,10.);
#100=VECTOR('',#414,10.);
#101=VECTOR('',#415,10.);
#102=VECTOR('',#416,10.);
#103=VECTOR('',#421,10.);
#104=VECTOR('',#430,10.);
#105=VECTOR('',#443,10.);
#106=VECTOR('',#446,10.);
#107=VECTOR('',#449,10.);
#108=VECTOR('',#470,0.75);
#109=VECTOR('',#473,0.75);
#110=VECTOR('',#476,0.75);
#111=VECTOR('',#479,0.75);
#112=VECTOR('',#482,0.75);
#113=CIRCLE('',#343,2.);
#114=CIRCLE('',#344,2.);
#115=CIRCLE('',#346,4.4);
#116=CIRCLE('',#347,4.4);
#117=CIRCLE('',#348,4.4);
#118=CIRCLE('',#349,4.4);
#119=CIRCLE('',#351,2.);
#120=CIRCLE('',#352,2.);
#121=CIRCLE('',#355,5.);
#122=CIRCLE('',#356,5.);
#123=CIRCLE('',#358,15.);
#124=CIRCLE('',#359,5.);
#125=CIRCLE('',#360,0.75);
#126=CIRCLE('',#361,0.75);
#127=CIRCLE('',#362,0.75);
#128=CIRCLE('',#363,0.75);
#129=CIRCLE('',#364,0.75);
#130=CIRCLE('',#366,5.);
#131=CIRCLE('',#369,15.);
#132=CIRCLE('',#372,0.75);
#133=CIRCLE('',#373,0.75);
#134=CIRCLE('',#374,0.75);
#135=CIRCLE('',#375,0.75);
#136=CIRCLE('',#376,0.75);
#137=VERTEX_POINT('',#487);
#138=VERTEX_POINT('',#488);
#139=VERTEX_POINT('',#490);
#140=VERTEX_POINT('',#492);
#141=VERTEX_POINT('',#496);
#142=VERTEX_POINT('',#498);
#143=VERTEX_POINT('',#501);
#144=VERTEX_POINT('',#503);
#145=VERTEX_POINT('',#507);
#146=VERTEX_POINT('',#509);
#147=VERTEX_POINT('',#513);
#148=VERTEX_POINT('',#515);
#149=VERTEX_POINT('',#519);
#150=VERTEX_POINT('',#521);
#151=VERTEX_POINT('',#525);
#152=VERTEX_POINT('',#527);
#153=VERTEX_POINT('',#530);
#154=VERTEX_POINT('',#532);
#155=VERTEX_POINT('',#534);
#156=VERTEX_POINT('',#536);
#157=VERTEX_POINT('',#538);
#158=VERTEX_POINT('',#541);
#159=VERTEX_POINT('',#543);
#160=VERTEX_POINT('',#552);
#161=VERTEX_POINT('',#554);
#162=VERTEX_POINT('',#556);
#163=VERTEX_POINT('',#558);
#164=VERTEX_POINT('',#560);
#165=EDGE_CURVE('',#137,#138,#113,.T.);
#166=EDGE_CURVE('',#138,#139,#77,.T.);
#167=EDGE_CURVE('',#139,#140,#114,.T.);
#168=EDGE_CURVE('',#140,#137,#78,.T.);
#169=EDGE_CURVE('',#141,#141,#115,.T.);
#170=EDGE_CURVE('',#141,#142,#79,.T.);
#171=EDGE_CURVE('',#142,#142,#116,.T.);
#172=EDGE_CURVE('',#143,#139,#117,.T.);
#173=EDGE_CURVE('',#138,#144,#118,.T.);
#174=EDGE_CURVE('',#143,#144,#80,.T.);
#175=EDGE_CURVE('',#144,#145,#119,.T.);
#176=EDGE_CURVE('',#145,#146,#81,.T.);
#177=EDGE_CURVE('',#146,#143,#120,.T.);
#178=EDGE_CURVE('',#147,#145,#82,.T.);
#179=EDGE_CURVE('',#148,#147,#83,.T.);
#180=EDGE_CURVE('',#146,#148,#84,.T.);
#181=EDGE_CURVE('',#147,#149,#121,.T.);
#182=EDGE_CURVE('',#149,#150,#85,.T.);
#183=EDGE_CURVE('',#150,#148,#122,.T.);
#184=EDGE_CURVE('',#150,#151,#123,.T.);
#185=EDGE_CURVE('',#152,#151,#124,.T.);
#186=EDGE_CURVE('',#152,#140,#86,.T.);
#187=EDGE_CURVE('',#153,#153,#125,.T.);
#188=EDGE_CURVE('',#154,#154,#126,.T.);
#189=EDGE_CURVE('',#155,#155,#127,.T.);
#190=EDGE_CURVE('',#156,#156,#128,.T.);
#191=EDGE_CURVE('',#157,#157,#129,.T.);
#192=EDGE_CURVE('',#151,#158,#87,.T.);
#193=EDGE_CURVE('',#158,#159,#130,.T.);
#194=EDGE_CURVE('',#159,#152,#88,.T.);
#195=EDGE_CURVE('',#137,#159,#89,.T.);
#196=EDGE_CURVE('',#158,#149,#131,.T.);
#197=EDGE_CURVE('',#160,#160,#132,.T.);
#198=EDGE_CURVE('',#161,#161,#133,.T.);
#199=EDGE_CURVE('',#162,#162,#134,.T.);
#200=EDGE_CURVE('',#163,#163,#135,.T.);
#201=EDGE_CURVE('',#164,#164,#136,.T.);
#202=EDGE_CURVE('',#153,#160,#90,.T.);
#203=EDGE_CURVE('',#154,#161,#91,.T.);
#204=EDGE_CURVE('',#155,#162,#92,.T.);
#205=EDGE_CURVE('',#156,#163,#93,.T.);
#206=EDGE_CURVE('',#157,#164,#94,.T.);
#207=ORIENTED_EDGE('',*,*,#165,.T.);
#208=ORIENTED_EDGE('',*,*,#166,.T.);
#209=ORIENTED_EDGE('',*,*,#167,.T.);
#210=ORIENTED_EDGE('',*,*,#168,.T.);
#211=ORIENTED_EDGE('',*,*,#169,.F.);
#212=ORIENTED_EDGE('',*,*,#170,.T.);
#213=ORIENTED_EDGE('',*,*,#171,.T.);
#214=ORIENTED_EDGE('',*,*,#170,.F.);
#215=ORIENTED_EDGE('',*,*,#172,.T.);
#216=ORIENTED_EDGE('',*,*,#166,.F.);
#217=ORIENTED_EDGE('',*,*,#173,.T.);
#218=ORIENTED_EDGE('',*,*,#174,.F.);
#219=ORIENTED_EDGE('',*,*,#175,.T.);
#220=ORIENTED_EDGE('',*,*,#176,.T.);
#221=ORIENTED_EDGE('',*,*,#177,.T.);
#222=ORIENTED_EDGE('',*,*,#174,.T.);
#223=ORIENTED_EDGE('',*,*,#176,.F.);
#224=ORIENTED_EDGE('',*,*,#178,.F.);
#225=ORIENTED_EDGE('',*,*,#179,.F.);
#226=ORIENTED_EDGE('',*,*,#180,.F.);
#227=ORIENTED_EDGE('',*,*,#181,.T.);
#228=ORIENTED_EDGE('',*,*,#182,.T.);
#229=ORIENTED_EDGE('',*,*,#183,.T.);
#230=ORIENTED_EDGE('',*,*,#179,.T.);
#231=ORIENTED_EDGE('',*,*,#183,.F.);
#232=ORIENTED_EDGE('',*,*,#184,.T.);
#233=ORIENTED_EDGE('',*,*,#185,.F.);
#234=ORIENTED_EDGE('',*,*,#186,.T.);
#235=ORIENTED_EDGE('',*,*,#167,.F.);
#236=ORIENTED_EDGE('',*,*,#172,.F.);
#237=ORIENTED_EDGE('',*,*,#177,.F.);
#238=ORIENTED_EDGE('',*,*,#180,.T.);
#239=ORIENTED_EDGE('',*,*,#187,.T.);
#240=ORIENTED_EDGE('',*,*,#188,.T.);
#241=ORIENTED_EDGE('',*,*,#189,.T.);
#242=ORIENTED_EDGE('',*,*,#190,.T.);
#243=ORIENTED_EDGE('',*,*,#191,.T.);
#244=ORIENTED_EDGE('',*,*,#185,.T.);
#245=ORIENTED_EDGE('',*,*,#192,.T.);
#246=ORIENTED_EDGE('',*,*,#193,.T.);
#247=ORIENTED_EDGE('',*,*,#194,.T.);
#248=ORIENTED_EDGE('',*,*,#168,.F.);
#249=ORIENTED_EDGE('',*,*,#186,.F.);
#250=ORIENTED_EDGE('',*,*,#194,.F.);
#251=ORIENTED_EDGE('',*,*,#195,.F.);
#252=ORIENTED_EDGE('',*,*,#182,.F.);
#253=ORIENTED_EDGE('',*,*,#196,.F.);
#254=ORIENTED_EDGE('',*,*,#192,.F.);
#255=ORIENTED_EDGE('',*,*,#184,.F.);
#256=ORIENTED_EDGE('',*,*,#169,.T.);
#257=ORIENTED_EDGE('',*,*,#181,.F.);
#258=ORIENTED_EDGE('',*,*,#178,.T.);
#259=ORIENTED_EDGE('',*,*,#175,.F.);
#260=ORIENTED_EDGE('',*,*,#173,.F.);
#261=ORIENTED_EDGE('',*,*,#165,.F.);
#262=ORIENTED_EDGE('',*,*,#195,.T.);
#263=ORIENTED_EDGE('',*,*,#193,.F.);
#264=ORIENTED_EDGE('',*,*,#196,.T.);
#265=ORIENTED_EDGE('',*,*,#197,.T.);
#266=ORIENTED_EDGE('',*,*,#198,.T.);
#267=ORIENTED_EDGE('',*,*,#199,.T.);
#268=ORIENTED_EDGE('',*,*,#200,.T.);
#269=ORIENTED_EDGE('',*,*,#201,.T.);
#270=ORIENTED_EDGE('',*,*,#187,.F.);
#271=ORIENTED_EDGE('',*,*,#202,.T.);
#272=ORIENTED_EDGE('',*,*,#197,.F.);
#273=ORIENTED_EDGE('',*,*,#202,.F.);
#274=ORIENTED_EDGE('',*,*,#188,.F.);
#275=ORIENTED_EDGE('',*,*,#203,.T.);
#276=ORIENTED_EDGE('',*,*,#198,.F.);
#277=ORIENTED_EDGE('',*,*,#203,.F.);
#278=ORIENTED_EDGE('',*,*,#189,.F.);
#279=ORIENTED_EDGE('',*,*,#204,.T.);
#280=ORIENTED_EDGE('',*,*,#199,.F.);
#281=ORIENTED_EDGE('',*,*,#204,.F.);
#282=ORIENTED_EDGE('',*,*,#190,.F.);
#283=ORIENTED_EDGE('',*,*,#205,.T.);
#284=ORIENTED_EDGE('',*,*,#200,.F.);
#285=ORIENTED_EDGE('',*,*,#205,.F.);
#286=ORIENTED_EDGE('',*,*,#191,.F.);
#287=ORIENTED_EDGE('',*,*,#206,.T.);
#288=ORIENTED_EDGE('',*,*,#201,.F.);
#289=ORIENTED_EDGE('',*,*,#206,.F.);
#290=ORIENTED_EDGE('',*,*,#171,.F.);
#291=CYLINDRICAL_SURFACE('',#342,2.);
#292=CYLINDRICAL_SURFACE('',#345,4.4);
#293=CYLINDRICAL_SURFACE('',#350,2.);
#294=CYLINDRICAL_SURFACE('',#354,5.);
#295=CYLINDRICAL_SURFACE('',#365,5.);
#296=CYLINDRICAL_SURFACE('',#368,15.);
#297=CYLINDRICAL_SURFACE('',#377,0.75);
#298=CYLINDRICAL_SURFACE('',#378,0.75);
#299=CYLINDRICAL_SURFACE('',#379,0.75);
#300=CYLINDRICAL_SURFACE('',#380,0.75);
#301=CYLINDRICAL_SURFACE('',#381,0.75);
#302=ADVANCED_FACE('',(#32),#291,.F.);
#303=ADVANCED_FACE('',(#33,#21),#292,.T.);
#304=ADVANCED_FACE('',(#34),#293,.F.);
#305=ADVANCED_FACE('',(#35),#15,.F.);
#306=ADVANCED_FACE('',(#36),#294,.T.);
#307=ADVANCED_FACE('',(#37,#22,#23,#24,#25,#26),#16,.F.);
#308=ADVANCED_FACE('',(#38),#295,.T.);
#309=ADVANCED_FACE('',(#39),#17,.F.);
#310=ADVANCED_FACE('',(#40),#296,.T.);
#311=ADVANCED_FACE('',(#41),#18,.T.);
#312=ADVANCED_FACE('',(#42,#27,#28,#29,#30,#31),#19,.T.);
#313=ADVANCED_FACE('',(#43),#297,.F.);
#314=ADVANCED_FACE('',(#44),#298,.F.);
#315=ADVANCED_FACE('',(#45),#299,.F.);
#316=ADVANCED_FACE('',(#46),#300,.F.);
#317=ADVANCED_FACE('',(#47),#301,.F.);
#318=ADVANCED_FACE('',(#48),#20,.F.);
#319=CLOSED_SHELL('',(#302,#303,#304,#305,#306,#307,#308,#309,#310,#311,
#312,#313,#314,#315,#316,#317,#318));
#320=DERIVED_UNIT_ELEMENT(#323,1.);
#321=DERIVED_UNIT_ELEMENT(#578,-3.);
#322=DIMENSIONAL_EXPONENTS(0.,1.,0.,0.,0.,0.,0.);
#323=(
CONVERSION_BASED_UNIT('gram',#325)
MASS_UNIT()
NAMED_UNIT(#322)
);
#324=(
MASS_UNIT()
NAMED_UNIT(*)
SI_UNIT(.KILO.,.GRAM.)
);
#325=MASS_MEASURE_WITH_UNIT(MASS_MEASURE(0.001),#324);
#326=DERIVED_UNIT((#320,#321));
#327=MEASURE_REPRESENTATION_ITEM('density measure',
POSITIVE_RATIO_MEASURE(1.06),#326);
#328=PROPERTY_DEFINITION_REPRESENTATION(#333,#330);
#329=PROPERTY_DEFINITION_REPRESENTATION(#334,#331);
#330=REPRESENTATION('material name',(#332),#575);
#331=REPRESENTATION('density',(#327),#575);
#332=DESCRIPTIVE_REPRESENTATION_ITEM('ABS \X2\58516599\X0\',
'ABS \X2\58516599\X0\');
#333=PROPERTY_DEFINITION('material property','material name',#585);
#334=PROPERTY_DEFINITION('material property','density of part',#585);
#335=DATE_TIME_ROLE('creation_date');
#336=APPLIED_DATE_AND_TIME_ASSIGNMENT(#337,#335,(#585));
#337=DATE_AND_TIME(#338,#339);
#338=CALENDAR_DATE(2026,9,7);
#339=LOCAL_TIME(0,0,0.,#340);
#340=COORDINATED_UNIVERSAL_TIME_OFFSET(0,0,.BEHIND.);
#341=AXIS2_PLACEMENT_3D('',#485,#383,#384);
#342=AXIS2_PLACEMENT_3D('',#486,#385,#386);
#343=AXIS2_PLACEMENT_3D('',#489,#387,#388);
#344=AXIS2_PLACEMENT_3D('',#493,#390,#391);
#345=AXIS2_PLACEMENT_3D('',#495,#393,#394);
#346=AXIS2_PLACEMENT_3D('',#497,#395,#396);
#347=AXIS2_PLACEMENT_3D('',#500,#398,#399);
#348=AXIS2_PLACEMENT_3D('',#502,#400,#401);
#349=AXIS2_PLACEMENT_3D('',#504,#402,#403);
#350=AXIS2_PLACEMENT_3D('',#506,#405,#406);
#351=AXIS2_PLACEMENT_3D('',#508,#407,#408);
#352=AXIS2_PLACEMENT_3D('',#511,#410,#411);
#353=AXIS2_PLACEMENT_3D('',#512,#412,#413);
#354=AXIS2_PLACEMENT_3D('',#518,#417,#418);
#355=AXIS2_PLACEMENT_3D('',#520,#419,#420);
#356=AXIS2_PLACEMENT_3D('',#523,#422,#423);
#357=AXIS2_PLACEMENT_3D('',#524,#424,#425);
#358=AXIS2_PLACEMENT_3D('',#526,#426,#427);
#359=AXIS2_PLACEMENT_3D('',#528,#428,#429);
#360=AXIS2_PLACEMENT_3D('',#531,#431,#432);
#361=AXIS2_PLACEMENT_3D('',#533,#433,#434);
#362=AXIS2_PLACEMENT_3D('',#535,#435,#436);
#363=AXIS2_PLACEMENT_3D('',#537,#437,#438);
#364=AXIS2_PLACEMENT_3D('',#539,#439,#440);
#365=AXIS2_PLACEMENT_3D('',#540,#441,#442);
#366=AXIS2_PLACEMENT_3D('',#544,#444,#445);
#367=AXIS2_PLACEMENT_3D('',#546,#447,#448);
#368=AXIS2_PLACEMENT_3D('',#548,#450,#451);
#369=AXIS2_PLACEMENT_3D('',#549,#452,#453);
#370=AXIS2_PLACEMENT_3D('',#550,#454,#455);
#371=AXIS2_PLACEMENT_3D('',#551,#456,#457);
#372=AXIS2_PLACEMENT_3D('',#553,#458,#459);
#373=AXIS2_PLACEMENT_3D('',#555,#460,#461);
#374=AXIS2_PLACEMENT_3D('',#557,#462,#463);
#375=AXIS2_PLACEMENT_3D('',#559,#464,#465);
#376=AXIS2_PLACEMENT_3D('',#561,#466,#467);
#377=AXIS2_PLACEMENT_3D('',#562,#468,#469);
#378=AXIS2_PLACEMENT_3D('',#564,#471,#472);
#379=AXIS2_PLACEMENT_3D('',#566,#474,#475);
#380=AXIS2_PLACEMENT_3D('',#568,#477,#478);
#381=AXIS2_PLACEMENT_3D('',#570,#480,#481);
#382=AXIS2_PLACEMENT_3D('',#572,#483,#484);
#383=DIRECTION('axis',(0.,0.,1.));
#384=DIRECTION('refdir',(1.,0.,0.));
#385=DIRECTION('center_axis',(0.,0.,-1.));
#386=DIRECTION('ref_axis',(0.63027245391786,0.776374029596791,0.));
#387=DIRECTION('center_axis',(0.,0.,1.));
#388=DIRECTION('ref_axis',(0.63027245391786,0.776374029596791,0.));
#389=DIRECTION('',(0.,0.,-1.));
#390=DIRECTION('center_axis',(0.,0.,-1.));
#391=DIRECTION('ref_axis',(0.63027245391786,0.776374029596791,0.));
#392=DIRECTION('',(0.,0.,1.));
#393=DIRECTION('center_axis',(0.,0.,1.));
#394=DIRECTION('ref_axis',(1.,0.,0.));
#395=DIRECTION('center_axis',(0.,0.,1.));
#396=DIRECTION('ref_axis',(1.,0.,0.));
#397=DIRECTION('',(0.,0.,-1.));
#398=DIRECTION('center_axis',(0.,0.,1.));
#399=DIRECTION('ref_axis',(1.,0.,0.));
#400=DIRECTION('center_axis',(0.,0.,-1.));
#401=DIRECTION('ref_axis',(1.,0.,0.));
#402=DIRECTION('center_axis',(0.,0.,1.));
#403=DIRECTION('ref_axis',(1.,0.,0.));
#404=DIRECTION('',(0.,0.,1.));
#405=DIRECTION('center_axis',(0.,0.,-1.));
#406=DIRECTION('ref_axis',(0.63027245391786,-0.776374029596791,0.));
#407=DIRECTION('center_axis',(0.,0.,1.));
#408=DIRECTION('ref_axis',(0.63027245391786,-0.776374029596791,0.));
#409=DIRECTION('',(0.,0.,-1.));
#410=DIRECTION('center_axis',(0.,0.,-1.));
#411=DIRECTION('ref_axis',(0.63027245391786,-0.776374029596791,0.));
#412=DIRECTION('center_axis',(0.96576866589116,-0.25940486499449,0.));
#413=DIRECTION('ref_axis',(-0.25940486499449,-0.96576866589116,0.));
#414=DIRECTION('',(-0.25940486499449,-0.96576866589116,0.));
#415=DIRECTION('',(0.,0.,1.));
#416=DIRECTION('',(0.25940486499449,0.96576866589116,0.));
#417=DIRECTION('center_axis',(0.,0.,1.));
#418=DIRECTION('ref_axis',(-0.258233129995079,0.966082631337995,0.));
#419=DIRECTION('center_axis',(0.,0.,-1.));
#420=DIRECTION('ref_axis',(-0.258233129995079,0.966082631337995,0.));
#421=DIRECTION('',(0.,0.,-1.));
#422=DIRECTION('center_axis',(0.,0.,1.));
#423=DIRECTION('ref_axis',(-0.258233129995079,0.966082631337995,0.));
#424=DIRECTION('center_axis',(0.,0.,1.));
#425=DIRECTION('ref_axis',(1.,0.,0.));
#426=DIRECTION('center_axis',(0.,0.,-1.));
#427=DIRECTION('ref_axis',(1.,0.,0.));
#428=DIRECTION('center_axis',(0.,0.,1.));
#429=DIRECTION('ref_axis',(-0.258233129995079,-0.966082631337995,0.));
#430=DIRECTION('',(-0.25940486499449,0.96576866589116,0.));
#431=DIRECTION('center_axis',(0.,0.,1.));
#432=DIRECTION('ref_axis',(-1.,0.,0.));
#433=DIRECTION('center_axis',(0.,0.,1.));
#434=DIRECTION('ref_axis',(-1.,0.,0.));
#435=DIRECTION('center_axis',(0.,0.,1.));
#436=DIRECTION('ref_axis',(-1.,0.,0.));
#437=DIRECTION('center_axis',(0.,0.,1.));
#438=DIRECTION('ref_axis',(-1.,0.,0.));
#439=DIRECTION('center_axis',(0.,0.,1.));
#440=DIRECTION('ref_axis',(-1.,0.,0.));
#441=DIRECTION('center_axis',(0.,0.,-1.));
#442=DIRECTION('ref_axis',(-0.258233129995079,-0.966082631337995,0.));
#443=DIRECTION('',(0.,0.,1.));
#444=DIRECTION('center_axis',(0.,0.,-1.));
#445=DIRECTION('ref_axis',(-0.258233129995079,-0.966082631337995,0.));
#446=DIRECTION('',(0.,0.,-1.));
#447=DIRECTION('center_axis',(0.96576866589116,0.25940486499449,0.));
#448=DIRECTION('ref_axis',(0.25940486499449,-0.96576866589116,0.));
#449=DIRECTION('',(0.25940486499449,-0.96576866589116,0.));
#450=DIRECTION('center_axis',(0.,0.,-1.));
#451=DIRECTION('ref_axis',(1.,0.,0.));
#452=DIRECTION('center_axis',(0.,0.,1.));
#453=DIRECTION('ref_axis',(1.,0.,0.));
#454=DIRECTION('center_axis',(0.,0.,1.));
#455=DIRECTION('ref_axis',(1.,0.,0.));
#456=DIRECTION('center_axis',(0.,0.,1.));
#457=DIRECTION('ref_axis',(1.,0.,0.));
#458=DIRECTION('center_axis',(0.,0.,-1.));
#459=DIRECTION('ref_axis',(-1.,0.,0.));
#460=DIRECTION('center_axis',(0.,0.,-1.));
#461=DIRECTION('ref_axis',(-1.,0.,0.));
#462=DIRECTION('center_axis',(0.,0.,-1.));
#463=DIRECTION('ref_axis',(-1.,0.,0.));
#464=DIRECTION('center_axis',(0.,0.,-1.));
#465=DIRECTION('ref_axis',(-1.,0.,0.));
#466=DIRECTION('center_axis',(0.,0.,-1.));
#467=DIRECTION('ref_axis',(-1.,0.,0.));
#468=DIRECTION('center_axis',(0.,0.,-1.));
#469=DIRECTION('ref_axis',(-1.,0.,0.));
#470=DIRECTION('',(0.,0.,1.));
#471=DIRECTION('center_axis',(0.,0.,-1.));
#472=DIRECTION('ref_axis',(-1.,0.,0.));
#473=DIRECTION('',(0.,0.,1.));
#474=DIRECTION('center_axis',(0.,0.,-1.));
#475=DIRECTION('ref_axis',(-1.,0.,0.));
#476=DIRECTION('',(0.,0.,1.));
#477=DIRECTION('center_axis',(0.,0.,-1.));
#478=DIRECTION('ref_axis',(-1.,0.,0.));
#479=DIRECTION('',(0.,0.,1.));
#480=DIRECTION('center_axis',(0.,0.,-1.));
#481=DIRECTION('ref_axis',(-1.,0.,0.));
#482=DIRECTION('',(0.,0.,1.));
#483=DIRECTION('center_axis',(0.,0.,1.));
#484=DIRECTION('ref_axis',(1.,0.,0.));
#485=CARTESIAN_POINT('',(0.,0.,0.));
#486=CARTESIAN_POINT('Origin',(-0.354492287401963,-6.390174897307,0.));
#487=CARTESIAN_POINT('',(1.57704504438036,-5.87136516731802,23.));
#488=CARTESIAN_POINT('',(-0.243713447588849,-4.39324524189856,23.));
#489=CARTESIAN_POINT('Origin',(-0.354492287401963,-6.390174897307,23.));
#490=CARTESIAN_POINT('',(-0.243713447588849,-4.39324524189856,21.));
#491=CARTESIAN_POINT('',(-0.243713447588849,-4.39324524189856,0.));
#492=CARTESIAN_POINT('',(1.57704504438036,-5.87136516731802,21.));
#493=CARTESIAN_POINT('Origin',(-0.354492287401963,-6.390174897307,21.));
#494=CARTESIAN_POINT('',(1.57704504438036,-5.87136516731802,0.));
#495=CARTESIAN_POINT('Origin',(0.,0.,0.));
#496=CARTESIAN_POINT('',(-4.4,-5.38844591624836E-16,25.4));
#497=CARTESIAN_POINT('Origin',(0.,0.,25.4));
#498=CARTESIAN_POINT('',(-4.4,-5.38844591624836E-16,0.));
#499=CARTESIAN_POINT('',(-4.4,-5.38844591624836E-16,0.));
#500=CARTESIAN_POINT('Origin',(0.,0.,0.));
#501=CARTESIAN_POINT('',(-0.243713447588849,4.39324524189856,21.));
#502=CARTESIAN_POINT('Origin',(0.,0.,21.));
#503=CARTESIAN_POINT('',(-0.243713447588849,4.39324524189856,23.));
#504=CARTESIAN_POINT('Origin',(0.,0.,23.));
#505=CARTESIAN_POINT('',(-0.243713447588849,4.39324524189856,0.));
#506=CARTESIAN_POINT('Origin',(-0.354492287401963,6.390174897307,0.));
#507=CARTESIAN_POINT('',(1.57704504438036,5.87136516731802,23.));
#508=CARTESIAN_POINT('Origin',(-0.354492287401963,6.390174897307,23.));
#509=CARTESIAN_POINT('',(1.57704504438036,5.87136516731802,21.));
#510=CARTESIAN_POINT('',(1.57704504438036,5.87136516731802,0.));
#511=CARTESIAN_POINT('Origin',(-0.354492287401963,6.390174897307,21.));
#512=CARTESIAN_POINT('Origin',(3.89107297491735,14.4865299883674,23.));
#513=CARTESIAN_POINT('',(2.24651202950501,8.3638019884075,23.));
#514=CARTESIAN_POINT('',(2.19787730239421,8.18273408315147,23.));
#515=CARTESIAN_POINT('',(2.24651202950501,8.3638019884075,21.));
#516=CARTESIAN_POINT('',(2.24651202950501,8.3638019884075,23.));
#517=CARTESIAN_POINT('',(2.19787730239421,8.18273408315147,21.));
#518=CARTESIAN_POINT('Origin',(7.07535535896081,7.06677766343505,23.));
#519=CARTESIAN_POINT('',(10.6130330384412,10.6001664951526,23.));
#520=CARTESIAN_POINT('Origin',(7.07535535896081,7.06677766343505,23.));
#521=CARTESIAN_POINT('',(10.6130330384412,10.6001664951526,21.));
#522=CARTESIAN_POINT('',(10.6130330384412,10.6001664951526,23.));
#523=CARTESIAN_POINT('Origin',(7.07535535896081,7.06677766343505,21.));
#524=CARTESIAN_POINT('Origin',(7.5,0.,21.));
#525=CARTESIAN_POINT('',(10.6130330384412,-10.6001664951526,21.));
#526=CARTESIAN_POINT('Origin',(0.,0.,21.));
#527=CARTESIAN_POINT('',(2.24651202950501,-8.3638019884075,21.));
#528=CARTESIAN_POINT('Origin',(7.07535535896081,-7.06677766343505,21.));
#529=CARTESIAN_POINT('',(0.823031517923413,-3.06416015392832,21.));
#530=CARTESIAN_POINT('',(12.75,0.,21.));
#531=CARTESIAN_POINT('Origin',(12.,2.49222221062784E-64,21.));
#532=CARTESIAN_POINT('',(11.1423048454133,6.,21.));
#533=CARTESIAN_POINT('Origin',(10.3923048454133,6.,21.));
#534=CARTESIAN_POINT('',(6.74999999999998,10.3923048454133,21.));
#535=CARTESIAN_POINT('Origin',(5.99999999999998,10.3923048454133,21.));
#536=CARTESIAN_POINT('',(6.75,-10.3923048454133,21.));
#537=CARTESIAN_POINT('Origin',(6.,-10.3923048454133,21.));
#538=CARTESIAN_POINT('',(11.1423048454133,-6.,21.));
#539=CARTESIAN_POINT('Origin',(10.3923048454133,-6.,21.));
#540=CARTESIAN_POINT('Origin',(7.07535535896081,-7.06677766343505,23.));
#541=CARTESIAN_POINT('',(10.6130330384412,-10.6001664951526,23.));
#542=CARTESIAN_POINT('',(10.6130330384412,-10.6001664951526,23.));
#543=CARTESIAN_POINT('',(2.24651202950501,-8.3638019884075,23.));
#544=CARTESIAN_POINT('Origin',(7.07535535896081,-7.06677766343505,23.));
#545=CARTESIAN_POINT('',(2.24651202950501,-8.3638019884075,23.));
#546=CARTESIAN_POINT('Origin',(1.14138140597576,-4.2493821299211,23.));
#547=CARTESIAN_POINT('',(0.823031517923413,-3.06416015392832,23.));
#548=CARTESIAN_POINT('Origin',(0.,0.,23.));
#549=CARTESIAN_POINT('Origin',(0.,0.,23.));
#550=CARTESIAN_POINT('Origin',(0.,0.,25.4));
#551=CARTESIAN_POINT('Origin',(7.5,0.,23.));
#552=CARTESIAN_POINT('',(12.75,9.18485099360514E-17,23.));
#553=CARTESIAN_POINT('Origin',(12.,2.49222221062784E-64,23.));
#554=CARTESIAN_POINT('',(11.1423048454133,6.,23.));
#555=CARTESIAN_POINT('Origin',(10.3923048454133,6.,23.));
#556=CARTESIAN_POINT('',(6.74999999999998,10.3923048454133,23.));
#557=CARTESIAN_POINT('Origin',(5.99999999999998,10.3923048454133,23.));
#558=CARTESIAN_POINT('',(6.75,-10.3923048454133,23.));
#559=CARTESIAN_POINT('Origin',(6.,-10.3923048454133,23.));
#560=CARTESIAN_POINT('',(11.1423048454133,-6.,23.));
#561=CARTESIAN_POINT('Origin',(10.3923048454133,-6.,23.));
#562=CARTESIAN_POINT('Origin',(12.,2.49222221062784E-64,23.));
#563=CARTESIAN_POINT('',(12.75,-9.18485099360514E-17,23.));
#564=CARTESIAN_POINT('Origin',(10.3923048454133,6.,23.));
#565=CARTESIAN_POINT('',(11.1423048454133,6.,23.));
#566=CARTESIAN_POINT('Origin',(5.99999999999998,10.3923048454133,23.));
#567=CARTESIAN_POINT('',(6.74999999999998,10.3923048454133,23.));
#568=CARTESIAN_POINT('Origin',(6.,-10.3923048454133,23.));
#569=CARTESIAN_POINT('',(6.75,-10.3923048454133,23.));
#570=CARTESIAN_POINT('Origin',(10.3923048454133,-6.,23.));
#571=CARTESIAN_POINT('',(11.1423048454133,-6.,23.));
#572=CARTESIAN_POINT('Origin',(0.,0.,0.));
#573=UNCERTAINTY_MEASURE_WITH_UNIT(LENGTH_MEASURE(0.01),#577,
'DISTANCE_ACCURACY_VALUE',
'Maximum model space distance between geometric entities at asserted c
onnectivities');
#574=UNCERTAINTY_MEASURE_WITH_UNIT(LENGTH_MEASURE(0.01),#577,
'DISTANCE_ACCURACY_VALUE',
'Maximum model space distance between geometric entities at asserted c
onnectivities');
#575=(
GEOMETRIC_REPRESENTATION_CONTEXT(3)
GLOBAL_UNCERTAINTY_ASSIGNED_CONTEXT((#573))
GLOBAL_UNIT_ASSIGNED_CONTEXT((#577,#579,#580))
REPRESENTATION_CONTEXT('','3D')
);
#576=(
GEOMETRIC_REPRESENTATION_CONTEXT(3)
GLOBAL_UNCERTAINTY_ASSIGNED_CONTEXT((#574))
GLOBAL_UNIT_ASSIGNED_CONTEXT((#577,#579,#580))
REPRESENTATION_CONTEXT('','3D')
);
#577=(
LENGTH_UNIT()
NAMED_UNIT(*)
SI_UNIT(.MILLI.,.METRE.)
);
#578=(
LENGTH_UNIT()
NAMED_UNIT(*)
SI_UNIT(.CENTI.,.METRE.)
);
#579=(
NAMED_UNIT(*)
PLANE_ANGLE_UNIT()
SI_UNIT($,.RADIAN.)
);
#580=(
NAMED_UNIT(*)
SI_UNIT($,.STERADIAN.)
SOLID_ANGLE_UNIT()
);
#581=SHAPE_DEFINITION_REPRESENTATION(#582,#583);
#582=PRODUCT_DEFINITION_SHAPE('',$,#585);
#583=SHAPE_REPRESENTATION('',(#341),#575);
#584=PRODUCT_DEFINITION_CONTEXT('part definition',#589,'design');
#585=PRODUCT_DEFINITION('\X2\96F64EF6\X0\1','\X2\96F64EF6\X0\1',#586,#584);
#586=PRODUCT_DEFINITION_FORMATION('',$,#591);
#587=PRODUCT_RELATED_PRODUCT_CATEGORY('\X2\96F64EF6\X0\1','\X2\96F64EF6\X0\1',
(#591));
#588=APPLICATION_PROTOCOL_DEFINITION('international standard',
'automotive_design',2009,#589);
#589=APPLICATION_CONTEXT(
'Core Data for Automotive Mechanical Design Process');
#590=PRODUCT_CONTEXT('part definition',#589,'mechanical');
#591=PRODUCT('\X2\96F64EF6\X0\1','\X2\96F64EF6\X0\1',$,(#590));
#592=PRESENTATION_STYLE_ASSIGNMENT((#593));
#593=SURFACE_STYLE_USAGE(.BOTH.,#596);
#594=SURFACE_STYLE_RENDERING_WITH_PROPERTIES($,#600,(#595));
#595=SURFACE_STYLE_TRANSPARENT(0.);
#596=SURFACE_SIDE_STYLE('',(#597,#594));
#597=SURFACE_STYLE_FILL_AREA(#598);
#598=FILL_AREA_STYLE('',(#599));
#599=FILL_AREA_STYLE_COLOUR('',#600);
#600=COLOUR_RGB('',0.92156862745098,0.92156862745098,0.92156862745098);
ENDSEC;
END-ISO-10303-21;
