ISO-10303-21;
HEADER;
/* Generated by software containing ST-Developer
 * from STEP Tools, Inc. (www.steptools.com) 
 */

FILE_DESCRIPTION(
/* description */ (''),
/* implementation_level */ '2;1');

FILE_NAME(
/* name */ '',
/* time_stamp */ '2026-05-30T00:20:37+08:00',
/* author */ ('xzc'),
/* organization */ (''),
/* preprocessor_version */ 'ST-DEVELOPER v20',
/* originating_system */ 'Autodesk Inventor 2025',
/* authorisation */ '');

FILE_SCHEMA (('AUTOMOTIVE_DESIGN { 1 0 10303 214 3 1 1 }'));
ENDSEC;

DATA;
#10=MECHANICAL_DESIGN_GEOMETRIC_PRESENTATION_REPRESENTATION('',(#675,#676,
#677,#678,#679,#680,#681,#682,#683,#684,#685,#686,#687,#688,#689,#690,#691,
#692,#693,#694,#695,#696,#697,#698,#699,#700,#701,#702,#703,#704,#705,#706,
#707,#708,#709,#710,#711,#712,#713,#714,#715,#716,#717,#718,#719,#720,#721),
#1426);
#11=SHAPE_REPRESENTATION_RELATIONSHIP('SRR','None',#1433,#12);
#12=ADVANCED_BREP_SHAPE_REPRESENTATION('',(#28,#27),#1425);
#13=ELLIPSE('',#841,3.14690934039545,2.99869174990399);
#14=B_SPLINE_CURVE_WITH_KNOTS('',3,(#1247,#1248,#1249,#1250,#1251,#1252,
#1253,#1254,#1255,#1256,#1257,#1258,#1259,#1260,#1261,#1262,#1263,#1264,
#1265),.UNSPECIFIED.,.F.,.F.,(4,2,2,2,3,2,2,2,4),(-0.338627424825752,-0.224335630913147,
-0.112167815456573,-0.0560839077282864,0.,0.0560839077282865,0.112167815456573,
0.224335630913146,0.338627424632089),.UNSPECIFIED.);
#15=B_SPLINE_CURVE_WITH_KNOTS('',3,(#1276,#1277,#1278,#1279,#1280,#1281,
#1282,#1283,#1284,#1285),.UNSPECIFIED.,.F.,.F.,(4,2,2,2,4),(1.17249216306313,
1.17977453993418,1.2379567731188,1.35432123948803,1.47917736735152),
 .UNSPECIFIED.);
#16=B_SPLINE_CURVE_WITH_KNOTS('',3,(#1287,#1288,#1289,#1290),
 .UNSPECIFIED.,.F.,.F.,(4,4),(-0.232063411158259,0.),.UNSPECIFIED.);
#17=B_SPLINE_CURVE_WITH_KNOTS('',3,(#1301,#1302,#1303,#1304,#1305,#1306,
#1307,#1308,#1309,#1310),.UNSPECIFIED.,.F.,.F.,(4,2,2,2,4),(0.,0.878763805230209,
1.75752761046042,2.39368510502248,2.79829614879197),.UNSPECIFIED.);
#18=B_SPLINE_CURVE_WITH_KNOTS('',3,(#1385,#1386,#1387,#1388,#1389,#1390,
#1391,#1392,#1393,#1394),.UNSPECIFIED.,.F.,.F.,(4,2,2,2,4),(0.,0.878763805230207,
1.75752761046041,2.39368510502249,3.02984259958456),.UNSPECIFIED.);
#19=FACE_BOUND('',#227,.T.);
#20=FACE_BOUND('',#234,.T.);
#21=FACE_BOUND('',#244,.T.);
#22=FACE_BOUND('',#256,.T.);
#23=FACE_BOUND('',#258,.T.);
#24=FACE_BOUND('',#259,.T.);
#25=FACE_BOUND('',#260,.T.);
#26=ORIENTED_CLOSED_SHELL('',*,#768,.F.);
#27=BREP_WITH_VOIDS('\X2\5B9E4F53\X0\1',#769,(#26));
#28=MANIFOLD_SOLID_BREP('\X2\5B9E4F53\X0\1',#767);
#29=PLANE('',#806);
#30=PLANE('',#807);
#31=PLANE('',#808);
#32=PLANE('',#812);
#33=PLANE('',#813);
#34=PLANE('',#817);
#35=PLANE('',#821);
#36=PLANE('',#822);
#37=PLANE('',#823);
#38=PLANE('',#824);
#39=PLANE('',#825);
#40=PLANE('',#826);
#41=PLANE('',#827);
#42=PLANE('',#828);
#43=PLANE('',#829);
#44=PLANE('',#830);
#45=PLANE('',#831);
#46=PLANE('',#832);
#47=PLANE('',#837);
#48=PLANE('',#845);
#49=PLANE('',#849);
#50=PLANE('',#853);
#51=PLANE('',#865);
#52=PLANE('',#868);
#53=PLANE('',#872);
#54=PLANE('',#873);
#55=LINE('',#1129,#104);
#56=LINE('',#1132,#105);
#57=LINE('',#1163,#106);
#58=LINE('',#1167,#107);
#59=LINE('',#1169,#108);
#60=LINE('',#1172,#109);
#61=LINE('',#1178,#110);
#62=LINE('',#1185,#111);
#63=LINE('',#1191,#112);
#64=LINE('',#1193,#113);
#65=LINE('',#1195,#114);
#66=LINE('',#1196,#115);
#67=LINE('',#1199,#116);
#68=LINE('',#1201,#117);
#69=LINE('',#1202,#118);
#70=LINE('',#1205,#119);
#71=LINE('',#1207,#120);
#72=LINE('',#1208,#121);
#73=LINE('',#1210,#122);
#74=LINE('',#1211,#123);
#75=LINE('',#1216,#124);
#76=LINE('',#1218,#125);
#77=LINE('',#1220,#126);
#78=LINE('',#1221,#127);
#79=LINE('',#1224,#128);
#80=LINE('',#1226,#129);
#81=LINE('',#1227,#130);
#82=LINE('',#1230,#131);
#83=LINE('',#1232,#132);
#84=LINE('',#1233,#133);
#85=LINE('',#1235,#134);
#86=LINE('',#1236,#135);
#87=LINE('',#1243,#136);
#88=LINE('',#1272,#137);
#89=LINE('',#1296,#138);
#90=LINE('',#1300,#139);
#91=LINE('',#1313,#140);
#92=LINE('',#1314,#141);
#93=LINE('',#1316,#142);
#94=LINE('',#1318,#143);
#95=LINE('',#1320,#144);
#96=LINE('',#1321,#145);
#97=LINE('',#1326,#146);
#98=LINE('',#1334,#147);
#99=LINE('',#1407,#148);
#100=LINE('',#1410,#149);
#101=LINE('',#1414,#150);
#102=LINE('',#1416,#151);
#103=LINE('',#1417,#152);
#104=VECTOR('',#892,10.);
#105=VECTOR('',#895,10.);
#106=VECTOR('',#912,10.);
#107=VECTOR('',#917,10.);
#108=VECTOR('',#918,10.);
#109=VECTOR('',#923,10.);
#110=VECTOR('',#930,1.5);
#111=VECTOR('',#939,1.5);
#112=VECTOR('',#946,10.);
#113=VECTOR('',#947,10.);
#114=VECTOR('',#948,10.);
#115=VECTOR('',#949,10.);
#116=VECTOR('',#952,10.);
#117=VECTOR('',#953,10.);
#118=VECTOR('',#954,10.);
#119=VECTOR('',#957,10.);
#120=VECTOR('',#958,10.);
#121=VECTOR('',#959,10.);
#122=VECTOR('',#962,10.);
#123=VECTOR('',#963,10.);
#124=VECTOR('',#968,10.);
#125=VECTOR('',#969,10.);
#126=VECTOR('',#970,10.);
#127=VECTOR('',#971,10.);
#128=VECTOR('',#974,10.);
#129=VECTOR('',#975,10.);
#130=VECTOR('',#976,10.);
#131=VECTOR('',#979,10.);
#132=VECTOR('',#980,10.);
#133=VECTOR('',#981,10.);
#134=VECTOR('',#984,10.);
#135=VECTOR('',#985,10.);
#136=VECTOR('',#994,2.89711371992864);
#137=VECTOR('',#1005,2.99869174990399);
#138=VECTOR('',#1014,10.);
#139=VECTOR('',#1017,10.);
#140=VECTOR('',#1020,10.);
#141=VECTOR('',#1021,10.);
#142=VECTOR('',#1022,10.);
#143=VECTOR('',#1023,10.);
#144=VECTOR('',#1024,10.);
#145=VECTOR('',#1025,10.);
#146=VECTOR('',#1030,3.);
#147=VECTOR('',#1041,1.5);
#148=VECTOR('',#1068,10.);
#149=VECTOR('',#1071,10.);
#150=VECTOR('',#1076,10.);
#151=VECTOR('',#1077,10.);
#152=VECTOR('',#1078,10.);
#153=CYLINDRICAL_SURFACE('',#799,22.4714911042033);
#154=CYLINDRICAL_SURFACE('',#810,15.1298976466143);
#155=CYLINDRICAL_SURFACE('',#814,1.5);
#156=CYLINDRICAL_SURFACE('',#818,1.5);
#157=CYLINDRICAL_SURFACE('',#834,2.89711371992864);
#158=CYLINDRICAL_SURFACE('',#839,2.99869174990399);
#159=CYLINDRICAL_SURFACE('',#843,22.4952319845008);
#160=CYLINDRICAL_SURFACE('',#846,3.);
#161=CYLINDRICAL_SURFACE('',#851,1.5);
#162=CYLINDRICAL_SURFACE('',#866,22.4952319845008);
#163=CYLINDRICAL_SURFACE('',#869,22.4952319845008);
#164=FACE_OUTER_BOUND('',#209,.T.);
#165=FACE_OUTER_BOUND('',#210,.T.);
#166=FACE_OUTER_BOUND('',#211,.T.);
#167=FACE_OUTER_BOUND('',#212,.T.);
#168=FACE_OUTER_BOUND('',#213,.T.);
#169=FACE_OUTER_BOUND('',#214,.T.);
#170=FACE_OUTER_BOUND('',#215,.T.);
#171=FACE_OUTER_BOUND('',#216,.T.);
#172=FACE_OUTER_BOUND('',#217,.T.);
#173=FACE_OUTER_BOUND('',#218,.T.);
#174=FACE_OUTER_BOUND('',#219,.T.);
#175=FACE_OUTER_BOUND('',#220,.T.);
#176=FACE_OUTER_BOUND('',#221,.T.);
#177=FACE_OUTER_BOUND('',#222,.T.);
#178=FACE_OUTER_BOUND('',#223,.T.);
#179=FACE_OUTER_BOUND('',#224,.T.);
#180=FACE_OUTER_BOUND('',#225,.T.);
#181=FACE_OUTER_BOUND('',#226,.T.);
#182=FACE_OUTER_BOUND('',#228,.T.);
#183=FACE_OUTER_BOUND('',#229,.T.);
#184=FACE_OUTER_BOUND('',#230,.T.);
#185=FACE_OUTER_BOUND('',#231,.T.);
#186=FACE_OUTER_BOUND('',#232,.T.);
#187=FACE_OUTER_BOUND('',#233,.T.);
#188=FACE_OUTER_BOUND('',#235,.T.);
#189=FACE_OUTER_BOUND('',#236,.T.);
#190=FACE_OUTER_BOUND('',#237,.T.);
#191=FACE_OUTER_BOUND('',#238,.T.);
#192=FACE_OUTER_BOUND('',#239,.T.);
#193=FACE_OUTER_BOUND('',#240,.T.);
#194=FACE_OUTER_BOUND('',#241,.T.);
#195=FACE_OUTER_BOUND('',#242,.T.);
#196=FACE_OUTER_BOUND('',#243,.T.);
#197=FACE_OUTER_BOUND('',#245,.T.);
#198=FACE_OUTER_BOUND('',#246,.T.);
#199=FACE_OUTER_BOUND('',#247,.T.);
#200=FACE_OUTER_BOUND('',#248,.T.);
#201=FACE_OUTER_BOUND('',#249,.T.);
#202=FACE_OUTER_BOUND('',#250,.T.);
#203=FACE_OUTER_BOUND('',#251,.T.);
#204=FACE_OUTER_BOUND('',#252,.T.);
#205=FACE_OUTER_BOUND('',#253,.T.);
#206=FACE_OUTER_BOUND('',#254,.T.);
#207=FACE_OUTER_BOUND('',#255,.T.);
#208=FACE_OUTER_BOUND('',#257,.T.);
#209=EDGE_LOOP('',(#469,#470,#471,#472));
#210=EDGE_LOOP('',(#473,#474,#475,#476));
#211=EDGE_LOOP('',(#477,#478,#479,#480));
#212=EDGE_LOOP('',(#481,#482,#483,#484));
#213=EDGE_LOOP('',(#485,#486,#487,#488));
#214=EDGE_LOOP('',(#489,#490,#491,#492,#493));
#215=EDGE_LOOP('',(#494,#495,#496,#497,#498));
#216=EDGE_LOOP('',(#499,#500));
#217=EDGE_LOOP('',(#501,#502,#503,#504));
#218=EDGE_LOOP('',(#505,#506,#507,#508));
#219=EDGE_LOOP('',(#509,#510));
#220=EDGE_LOOP('',(#511,#512,#513,#514));
#221=EDGE_LOOP('',(#515));
#222=EDGE_LOOP('',(#516,#517,#518,#519));
#223=EDGE_LOOP('',(#520));
#224=EDGE_LOOP('',(#521,#522,#523,#524));
#225=EDGE_LOOP('',(#525,#526,#527,#528));
#226=EDGE_LOOP('',(#529,#530,#531,#532));
#227=EDGE_LOOP('',(#533));
#228=EDGE_LOOP('',(#534,#535,#536,#537));
#229=EDGE_LOOP('',(#538,#539,#540,#541));
#230=EDGE_LOOP('',(#542,#543,#544,#545));
#231=EDGE_LOOP('',(#546,#547,#548,#549));
#232=EDGE_LOOP('',(#550,#551,#552,#553));
#233=EDGE_LOOP('',(#554,#555,#556,#557));
#234=EDGE_LOOP('',(#558));
#235=EDGE_LOOP('',(#559,#560,#561,#562));
#236=EDGE_LOOP('',(#563));
#237=EDGE_LOOP('',(#564,#565,#566,#567,#568,#569));
#238=EDGE_LOOP('',(#570));
#239=EDGE_LOOP('',(#571,#572,#573,#574,#575,#576,#577,#578));
#240=EDGE_LOOP('',(#579,#580,#581,#582,#583));
#241=EDGE_LOOP('',(#584,#585,#586,#587,#588,#589,#590,#591,#592,#593,#594));
#242=EDGE_LOOP('',(#595,#596,#597,#598));
#243=EDGE_LOOP('',(#599));
#244=EDGE_LOOP('',(#600));
#245=EDGE_LOOP('',(#601,#602,#603,#604));
#246=EDGE_LOOP('',(#605,#606,#607,#608,#609,#610));
#247=EDGE_LOOP('',(#611,#612,#613,#614,#615));
#248=EDGE_LOOP('',(#616,#617,#618,#619));
#249=EDGE_LOOP('',(#620,#621,#622,#623));
#250=EDGE_LOOP('',(#624,#625,#626,#627));
#251=EDGE_LOOP('',(#628,#629,#630,#631,#632));
#252=EDGE_LOOP('',(#633,#634,#635,#636));
#253=EDGE_LOOP('',(#637,#638,#639,#640,#641,#642));
#254=EDGE_LOOP('',(#643,#644,#645,#646,#647,#648));
#255=EDGE_LOOP('',(#649,#650,#651,#652));
#256=EDGE_LOOP('',(#653));
#257=EDGE_LOOP('',(#654,#655,#656,#657));
#258=EDGE_LOOP('',(#658,#659,#660,#661));
#259=EDGE_LOOP('',(#662,#663,#664,#665));
#260=EDGE_LOOP('',(#666));
#261=CIRCLE('',#792,1.05003758868601);
#262=CIRCLE('',#793,24.7324345655692);
#263=CIRCLE('',#794,1.05003758868601);
#264=CIRCLE('',#795,24.7208359715381);
#265=CIRCLE('',#796,569.151277423993);
#266=CIRCLE('',#797,22.4714911042033);
#267=CIRCLE('',#798,569.151277423993);
#268=CIRCLE('',#800,22.4714911042033);
#269=CIRCLE('',#801,529.407744897132);
#270=CIRCLE('',#802,24.7080033990309);
#271=CIRCLE('',#803,529.407744897132);
#272=CIRCLE('',#804,1.00436781154266);
#273=CIRCLE('',#805,1.00436781154266);
#274=CIRCLE('',#809,15.1298976466143);
#275=CIRCLE('',#811,15.1298976466143);
#276=CIRCLE('',#815,1.50000000000001);
#277=CIRCLE('',#816,1.5);
#278=CIRCLE('',#819,1.5);
#279=CIRCLE('',#820,1.5);
#280=CIRCLE('',#833,2.89711371992864);
#281=CIRCLE('',#835,2.89711371992864);
#282=CIRCLE('',#836,2.89711371992864);
#283=CIRCLE('',#838,2.99869174990399);
#284=CIRCLE('',#840,2.99869174990399);
#285=CIRCLE('',#842,2.99869174990399);
#286=CIRCLE('',#844,22.4952319845008);
#287=CIRCLE('',#847,3.);
#288=CIRCLE('',#848,3.);
#289=CIRCLE('',#850,1.5);
#290=CIRCLE('',#852,1.5);
#291=CIRCLE('',#854,529.407744897132);
#292=CIRCLE('',#855,1.00436781154266);
#293=CIRCLE('',#856,1.05003758868601);
#294=CIRCLE('',#857,569.151277423993);
#295=CIRCLE('',#858,529.407744897132);
#296=CIRCLE('',#859,24.7080033990309);
#297=CIRCLE('',#860,24.7208359715381);
#298=CIRCLE('',#861,1.05003758868601);
#299=CIRCLE('',#862,24.7324345655692);
#300=CIRCLE('',#863,569.151277423993);
#301=CIRCLE('',#864,1.00436781154266);
#302=CIRCLE('',#867,22.4952319845008);
#303=CIRCLE('',#870,22.4952319845008);
#304=CIRCLE('',#871,22.4952319845008);
#305=VERTEX_POINT('',#1105);
#306=VERTEX_POINT('',#1106);
#307=VERTEX_POINT('',#1108);
#308=VERTEX_POINT('',#1110);
#309=VERTEX_POINT('',#1122);
#310=VERTEX_POINT('',#1124);
#311=VERTEX_POINT('',#1128);
#312=VERTEX_POINT('',#1130);
#313=VERTEX_POINT('',#1142);
#314=VERTEX_POINT('',#1144);
#315=VERTEX_POINT('',#1161);
#316=VERTEX_POINT('',#1162);
#317=VERTEX_POINT('',#1166);
#318=VERTEX_POINT('',#1168);
#319=VERTEX_POINT('',#1175);
#320=VERTEX_POINT('',#1177);
#321=VERTEX_POINT('',#1182);
#322=VERTEX_POINT('',#1184);
#323=VERTEX_POINT('',#1189);
#324=VERTEX_POINT('',#1190);
#325=VERTEX_POINT('',#1192);
#326=VERTEX_POINT('',#1194);
#327=VERTEX_POINT('',#1198);
#328=VERTEX_POINT('',#1200);
#329=VERTEX_POINT('',#1204);
#330=VERTEX_POINT('',#1206);
#331=VERTEX_POINT('',#1214);
#332=VERTEX_POINT('',#1215);
#333=VERTEX_POINT('',#1217);
#334=VERTEX_POINT('',#1219);
#335=VERTEX_POINT('',#1223);
#336=VERTEX_POINT('',#1225);
#337=VERTEX_POINT('',#1229);
#338=VERTEX_POINT('',#1231);
#339=VERTEX_POINT('',#1239);
#340=VERTEX_POINT('',#1242);
#341=VERTEX_POINT('',#1244);
#342=VERTEX_POINT('',#1246);
#343=VERTEX_POINT('',#1268);
#344=VERTEX_POINT('',#1271);
#345=VERTEX_POINT('',#1273);
#346=VERTEX_POINT('',#1275);
#347=VERTEX_POINT('',#1286);
#348=VERTEX_POINT('',#1291);
#349=VERTEX_POINT('',#1295);
#350=VERTEX_POINT('',#1297);
#351=VERTEX_POINT('',#1299);
#352=VERTEX_POINT('',#1312);
#353=VERTEX_POINT('',#1315);
#354=VERTEX_POINT('',#1317);
#355=VERTEX_POINT('',#1319);
#356=VERTEX_POINT('',#1323);
#357=VERTEX_POINT('',#1325);
#358=VERTEX_POINT('',#1329);
#359=VERTEX_POINT('',#1332);
#360=VERTEX_POINT('',#1336);
#361=VERTEX_POINT('',#1338);
#362=VERTEX_POINT('',#1340);
#363=VERTEX_POINT('',#1352);
#364=VERTEX_POINT('',#1370);
#365=VERTEX_POINT('',#1372);
#366=VERTEX_POINT('',#1384);
#367=VERTEX_POINT('',#1409);
#368=VERTEX_POINT('',#1413);
#369=VERTEX_POINT('',#1415);
#370=EDGE_CURVE('',#305,#306,#261,.T.);
#371=EDGE_CURVE('',#305,#307,#262,.T.);
#372=EDGE_CURVE('',#307,#308,#263,.T.);
#373=EDGE_CURVE('',#306,#308,#264,.T.);
#374=EDGE_CURVE('',#309,#305,#265,.T.);
#375=EDGE_CURVE('',#309,#310,#266,.T.);
#376=EDGE_CURVE('',#310,#307,#267,.T.);
#377=EDGE_CURVE('',#311,#309,#55,.T.);
#378=EDGE_CURVE('',#311,#312,#268,.T.);
#379=EDGE_CURVE('',#312,#310,#56,.T.);
#380=EDGE_CURVE('',#313,#311,#269,.T.);
#381=EDGE_CURVE('',#313,#314,#270,.T.);
#382=EDGE_CURVE('',#314,#312,#271,.T.);
#383=EDGE_CURVE('',#306,#313,#272,.T.);
#384=EDGE_CURVE('',#308,#314,#273,.T.);
#385=EDGE_CURVE('',#315,#316,#57,.T.);
#386=EDGE_CURVE('',#316,#315,#274,.T.);
#387=EDGE_CURVE('',#317,#316,#58,.T.);
#388=EDGE_CURVE('',#315,#318,#59,.T.);
#389=EDGE_CURVE('',#318,#317,#275,.T.);
#390=EDGE_CURVE('',#317,#318,#60,.T.);
#391=EDGE_CURVE('',#319,#319,#276,.T.);
#392=EDGE_CURVE('',#319,#320,#61,.T.);
#393=EDGE_CURVE('',#320,#320,#277,.T.);
#394=EDGE_CURVE('',#321,#321,#278,.T.);
#395=EDGE_CURVE('',#321,#322,#62,.T.);
#396=EDGE_CURVE('',#322,#322,#279,.T.);
#397=EDGE_CURVE('',#323,#324,#63,.T.);
#398=EDGE_CURVE('',#323,#325,#64,.T.);
#399=EDGE_CURVE('',#325,#326,#65,.T.);
#400=EDGE_CURVE('',#324,#326,#66,.T.);
#401=EDGE_CURVE('',#327,#323,#67,.T.);
#402=EDGE_CURVE('',#327,#328,#68,.T.);
#403=EDGE_CURVE('',#328,#325,#69,.T.);
#404=EDGE_CURVE('',#329,#327,#70,.T.);
#405=EDGE_CURVE('',#329,#330,#71,.T.);
#406=EDGE_CURVE('',#330,#328,#72,.T.);
#407=EDGE_CURVE('',#324,#329,#73,.T.);
#408=EDGE_CURVE('',#326,#330,#74,.T.);
#409=EDGE_CURVE('',#331,#332,#75,.T.);
#410=EDGE_CURVE('',#331,#333,#76,.T.);
#411=EDGE_CURVE('',#333,#334,#77,.T.);
#412=EDGE_CURVE('',#332,#334,#78,.T.);
#413=EDGE_CURVE('',#335,#331,#79,.T.);
#414=EDGE_CURVE('',#335,#336,#80,.T.);
#415=EDGE_CURVE('',#336,#333,#81,.T.);
#416=EDGE_CURVE('',#337,#335,#82,.T.);
#417=EDGE_CURVE('',#337,#338,#83,.T.);
#418=EDGE_CURVE('',#338,#336,#84,.T.);
#419=EDGE_CURVE('',#332,#337,#85,.T.);
#420=EDGE_CURVE('',#334,#338,#86,.T.);
#421=EDGE_CURVE('',#339,#339,#280,.T.);
#422=EDGE_CURVE('',#339,#340,#87,.T.);
#423=EDGE_CURVE('',#341,#340,#281,.T.);
#424=EDGE_CURVE('',#342,#341,#14,.T.);
#425=EDGE_CURVE('',#340,#342,#282,.T.);
#426=EDGE_CURVE('',#343,#343,#283,.T.);
#427=EDGE_CURVE('',#343,#344,#88,.T.);
#428=EDGE_CURVE('',#345,#344,#284,.T.);
#429=EDGE_CURVE('',#346,#345,#15,.T.);
#430=EDGE_CURVE('',#347,#346,#16,.T.);
#431=EDGE_CURVE('',#348,#347,#13,.T.);
#432=EDGE_CURVE('',#344,#348,#285,.T.);
#433=EDGE_CURVE('',#345,#349,#89,.T.);
#434=EDGE_CURVE('',#350,#349,#286,.T.);
#435=EDGE_CURVE('',#351,#350,#90,.T.);
#436=EDGE_CURVE('',#351,#346,#17,.T.);
#437=EDGE_CURVE('',#342,#352,#91,.T.);
#438=EDGE_CURVE('',#349,#352,#92,.T.);
#439=EDGE_CURVE('',#353,#348,#93,.T.);
#440=EDGE_CURVE('',#354,#353,#94,.T.);
#441=EDGE_CURVE('',#355,#354,#95,.T.);
#442=EDGE_CURVE('',#355,#341,#96,.T.);
#443=EDGE_CURVE('',#356,#356,#287,.T.);
#444=EDGE_CURVE('',#356,#357,#97,.T.);
#445=EDGE_CURVE('',#357,#357,#288,.T.);
#446=EDGE_CURVE('',#358,#358,#289,.T.);
#447=EDGE_CURVE('',#359,#359,#290,.T.);
#448=EDGE_CURVE('',#359,#358,#98,.T.);
#449=EDGE_CURVE('',#360,#347,#291,.T.);
#450=EDGE_CURVE('',#361,#360,#292,.T.);
#451=EDGE_CURVE('',#362,#361,#293,.T.);
#452=EDGE_CURVE('',#353,#362,#294,.T.);
#453=EDGE_CURVE('',#363,#351,#295,.T.);
#454=EDGE_CURVE('',#360,#363,#296,.T.);
#455=EDGE_CURVE('',#361,#364,#297,.T.);
#456=EDGE_CURVE('',#365,#364,#298,.T.);
#457=EDGE_CURVE('',#362,#365,#299,.T.);
#458=EDGE_CURVE('',#353,#366,#18,.T.);
#459=EDGE_CURVE('',#366,#365,#300,.T.);
#460=EDGE_CURVE('',#364,#363,#301,.T.);
#461=EDGE_CURVE('',#366,#351,#99,.T.);
#462=EDGE_CURVE('',#367,#366,#100,.T.);
#463=EDGE_CURVE('',#354,#367,#302,.T.);
#464=EDGE_CURVE('',#367,#368,#101,.T.);
#465=EDGE_CURVE('',#369,#350,#102,.T.);
#466=EDGE_CURVE('',#368,#369,#103,.T.);
#467=EDGE_CURVE('',#368,#355,#303,.T.);
#468=EDGE_CURVE('',#352,#369,#304,.T.);
#469=ORIENTED_EDGE('',*,*,#370,.F.);
#470=ORIENTED_EDGE('',*,*,#371,.T.);
#471=ORIENTED_EDGE('',*,*,#372,.T.);
#472=ORIENTED_EDGE('',*,*,#373,.F.);
#473=ORIENTED_EDGE('',*,*,#374,.F.);
#474=ORIENTED_EDGE('',*,*,#375,.T.);
#475=ORIENTED_EDGE('',*,*,#376,.T.);
#476=ORIENTED_EDGE('',*,*,#371,.F.);
#477=ORIENTED_EDGE('',*,*,#377,.F.);
#478=ORIENTED_EDGE('',*,*,#378,.T.);
#479=ORIENTED_EDGE('',*,*,#379,.T.);
#480=ORIENTED_EDGE('',*,*,#375,.F.);
#481=ORIENTED_EDGE('',*,*,#380,.F.);
#482=ORIENTED_EDGE('',*,*,#381,.T.);
#483=ORIENTED_EDGE('',*,*,#382,.T.);
#484=ORIENTED_EDGE('',*,*,#378,.F.);
#485=ORIENTED_EDGE('',*,*,#383,.F.);
#486=ORIENTED_EDGE('',*,*,#373,.T.);
#487=ORIENTED_EDGE('',*,*,#384,.T.);
#488=ORIENTED_EDGE('',*,*,#381,.F.);
#489=ORIENTED_EDGE('',*,*,#384,.F.);
#490=ORIENTED_EDGE('',*,*,#372,.F.);
#491=ORIENTED_EDGE('',*,*,#376,.F.);
#492=ORIENTED_EDGE('',*,*,#379,.F.);
#493=ORIENTED_EDGE('',*,*,#382,.F.);
#494=ORIENTED_EDGE('',*,*,#383,.T.);
#495=ORIENTED_EDGE('',*,*,#380,.T.);
#496=ORIENTED_EDGE('',*,*,#377,.T.);
#497=ORIENTED_EDGE('',*,*,#374,.T.);
#498=ORIENTED_EDGE('',*,*,#370,.T.);
#499=ORIENTED_EDGE('',*,*,#385,.F.);
#500=ORIENTED_EDGE('',*,*,#386,.F.);
#501=ORIENTED_EDGE('',*,*,#387,.T.);
#502=ORIENTED_EDGE('',*,*,#386,.T.);
#503=ORIENTED_EDGE('',*,*,#388,.T.);
#504=ORIENTED_EDGE('',*,*,#389,.T.);
#505=ORIENTED_EDGE('',*,*,#388,.F.);
#506=ORIENTED_EDGE('',*,*,#385,.T.);
#507=ORIENTED_EDGE('',*,*,#387,.F.);
#508=ORIENTED_EDGE('',*,*,#390,.T.);
#509=ORIENTED_EDGE('',*,*,#390,.F.);
#510=ORIENTED_EDGE('',*,*,#389,.F.);
#511=ORIENTED_EDGE('',*,*,#391,.F.);
#512=ORIENTED_EDGE('',*,*,#392,.T.);
#513=ORIENTED_EDGE('',*,*,#393,.F.);
#514=ORIENTED_EDGE('',*,*,#392,.F.);
#515=ORIENTED_EDGE('',*,*,#393,.T.);
#516=ORIENTED_EDGE('',*,*,#394,.F.);
#517=ORIENTED_EDGE('',*,*,#395,.T.);
#518=ORIENTED_EDGE('',*,*,#396,.T.);
#519=ORIENTED_EDGE('',*,*,#395,.F.);
#520=ORIENTED_EDGE('',*,*,#396,.F.);
#521=ORIENTED_EDGE('',*,*,#397,.F.);
#522=ORIENTED_EDGE('',*,*,#398,.T.);
#523=ORIENTED_EDGE('',*,*,#399,.T.);
#524=ORIENTED_EDGE('',*,*,#400,.F.);
#525=ORIENTED_EDGE('',*,*,#401,.F.);
#526=ORIENTED_EDGE('',*,*,#402,.T.);
#527=ORIENTED_EDGE('',*,*,#403,.T.);
#528=ORIENTED_EDGE('',*,*,#398,.F.);
#529=ORIENTED_EDGE('',*,*,#404,.F.);
#530=ORIENTED_EDGE('',*,*,#405,.T.);
#531=ORIENTED_EDGE('',*,*,#406,.T.);
#532=ORIENTED_EDGE('',*,*,#402,.F.);
#533=ORIENTED_EDGE('',*,*,#394,.T.);
#534=ORIENTED_EDGE('',*,*,#407,.F.);
#535=ORIENTED_EDGE('',*,*,#400,.T.);
#536=ORIENTED_EDGE('',*,*,#408,.T.);
#537=ORIENTED_EDGE('',*,*,#405,.F.);
#538=ORIENTED_EDGE('',*,*,#408,.F.);
#539=ORIENTED_EDGE('',*,*,#399,.F.);
#540=ORIENTED_EDGE('',*,*,#403,.F.);
#541=ORIENTED_EDGE('',*,*,#406,.F.);
#542=ORIENTED_EDGE('',*,*,#409,.F.);
#543=ORIENTED_EDGE('',*,*,#410,.T.);
#544=ORIENTED_EDGE('',*,*,#411,.T.);
#545=ORIENTED_EDGE('',*,*,#412,.F.);
#546=ORIENTED_EDGE('',*,*,#413,.F.);
#547=ORIENTED_EDGE('',*,*,#414,.T.);
#548=ORIENTED_EDGE('',*,*,#415,.T.);
#549=ORIENTED_EDGE('',*,*,#410,.F.);
#550=ORIENTED_EDGE('',*,*,#416,.F.);
#551=ORIENTED_EDGE('',*,*,#417,.T.);
#552=ORIENTED_EDGE('',*,*,#418,.T.);
#553=ORIENTED_EDGE('',*,*,#414,.F.);
#554=ORIENTED_EDGE('',*,*,#419,.F.);
#555=ORIENTED_EDGE('',*,*,#412,.T.);
#556=ORIENTED_EDGE('',*,*,#420,.T.);
#557=ORIENTED_EDGE('',*,*,#417,.F.);
#558=ORIENTED_EDGE('',*,*,#391,.T.);
#559=ORIENTED_EDGE('',*,*,#420,.F.);
#560=ORIENTED_EDGE('',*,*,#411,.F.);
#561=ORIENTED_EDGE('',*,*,#415,.F.);
#562=ORIENTED_EDGE('',*,*,#418,.F.);
#563=ORIENTED_EDGE('',*,*,#421,.F.);
#564=ORIENTED_EDGE('',*,*,#421,.T.);
#565=ORIENTED_EDGE('',*,*,#422,.T.);
#566=ORIENTED_EDGE('',*,*,#423,.F.);
#567=ORIENTED_EDGE('',*,*,#424,.F.);
#568=ORIENTED_EDGE('',*,*,#425,.F.);
#569=ORIENTED_EDGE('',*,*,#422,.F.);
#570=ORIENTED_EDGE('',*,*,#426,.F.);
#571=ORIENTED_EDGE('',*,*,#426,.T.);
#572=ORIENTED_EDGE('',*,*,#427,.T.);
#573=ORIENTED_EDGE('',*,*,#428,.F.);
#574=ORIENTED_EDGE('',*,*,#429,.F.);
#575=ORIENTED_EDGE('',*,*,#430,.F.);
#576=ORIENTED_EDGE('',*,*,#431,.F.);
#577=ORIENTED_EDGE('',*,*,#432,.F.);
#578=ORIENTED_EDGE('',*,*,#427,.F.);
#579=ORIENTED_EDGE('',*,*,#429,.T.);
#580=ORIENTED_EDGE('',*,*,#433,.T.);
#581=ORIENTED_EDGE('',*,*,#434,.F.);
#582=ORIENTED_EDGE('',*,*,#435,.F.);
#583=ORIENTED_EDGE('',*,*,#436,.T.);
#584=ORIENTED_EDGE('',*,*,#423,.T.);
#585=ORIENTED_EDGE('',*,*,#425,.T.);
#586=ORIENTED_EDGE('',*,*,#437,.T.);
#587=ORIENTED_EDGE('',*,*,#438,.F.);
#588=ORIENTED_EDGE('',*,*,#433,.F.);
#589=ORIENTED_EDGE('',*,*,#428,.T.);
#590=ORIENTED_EDGE('',*,*,#432,.T.);
#591=ORIENTED_EDGE('',*,*,#439,.F.);
#592=ORIENTED_EDGE('',*,*,#440,.F.);
#593=ORIENTED_EDGE('',*,*,#441,.F.);
#594=ORIENTED_EDGE('',*,*,#442,.T.);
#595=ORIENTED_EDGE('',*,*,#443,.F.);
#596=ORIENTED_EDGE('',*,*,#444,.T.);
#597=ORIENTED_EDGE('',*,*,#445,.T.);
#598=ORIENTED_EDGE('',*,*,#444,.F.);
#599=ORIENTED_EDGE('',*,*,#445,.F.);
#600=ORIENTED_EDGE('',*,*,#446,.F.);
#601=ORIENTED_EDGE('',*,*,#447,.F.);
#602=ORIENTED_EDGE('',*,*,#448,.T.);
#603=ORIENTED_EDGE('',*,*,#446,.T.);
#604=ORIENTED_EDGE('',*,*,#448,.F.);
#605=ORIENTED_EDGE('',*,*,#431,.T.);
#606=ORIENTED_EDGE('',*,*,#449,.F.);
#607=ORIENTED_EDGE('',*,*,#450,.F.);
#608=ORIENTED_EDGE('',*,*,#451,.F.);
#609=ORIENTED_EDGE('',*,*,#452,.F.);
#610=ORIENTED_EDGE('',*,*,#439,.T.);
#611=ORIENTED_EDGE('',*,*,#430,.T.);
#612=ORIENTED_EDGE('',*,*,#436,.F.);
#613=ORIENTED_EDGE('',*,*,#453,.F.);
#614=ORIENTED_EDGE('',*,*,#454,.F.);
#615=ORIENTED_EDGE('',*,*,#449,.T.);
#616=ORIENTED_EDGE('',*,*,#451,.T.);
#617=ORIENTED_EDGE('',*,*,#455,.T.);
#618=ORIENTED_EDGE('',*,*,#456,.F.);
#619=ORIENTED_EDGE('',*,*,#457,.F.);
#620=ORIENTED_EDGE('',*,*,#458,.F.);
#621=ORIENTED_EDGE('',*,*,#452,.T.);
#622=ORIENTED_EDGE('',*,*,#457,.T.);
#623=ORIENTED_EDGE('',*,*,#459,.F.);
#624=ORIENTED_EDGE('',*,*,#450,.T.);
#625=ORIENTED_EDGE('',*,*,#454,.T.);
#626=ORIENTED_EDGE('',*,*,#460,.F.);
#627=ORIENTED_EDGE('',*,*,#455,.F.);
#628=ORIENTED_EDGE('',*,*,#461,.F.);
#629=ORIENTED_EDGE('',*,*,#459,.T.);
#630=ORIENTED_EDGE('',*,*,#456,.T.);
#631=ORIENTED_EDGE('',*,*,#460,.T.);
#632=ORIENTED_EDGE('',*,*,#453,.T.);
#633=ORIENTED_EDGE('',*,*,#458,.T.);
#634=ORIENTED_EDGE('',*,*,#462,.F.);
#635=ORIENTED_EDGE('',*,*,#463,.F.);
#636=ORIENTED_EDGE('',*,*,#440,.T.);
#637=ORIENTED_EDGE('',*,*,#464,.F.);
#638=ORIENTED_EDGE('',*,*,#462,.T.);
#639=ORIENTED_EDGE('',*,*,#461,.T.);
#640=ORIENTED_EDGE('',*,*,#435,.T.);
#641=ORIENTED_EDGE('',*,*,#465,.F.);
#642=ORIENTED_EDGE('',*,*,#466,.F.);
#643=ORIENTED_EDGE('',*,*,#424,.T.);
#644=ORIENTED_EDGE('',*,*,#442,.F.);
#645=ORIENTED_EDGE('',*,*,#467,.F.);
#646=ORIENTED_EDGE('',*,*,#466,.T.);
#647=ORIENTED_EDGE('',*,*,#468,.F.);
#648=ORIENTED_EDGE('',*,*,#437,.F.);
#649=ORIENTED_EDGE('',*,*,#463,.T.);
#650=ORIENTED_EDGE('',*,*,#464,.T.);
#651=ORIENTED_EDGE('',*,*,#467,.T.);
#652=ORIENTED_EDGE('',*,*,#441,.T.);
#653=ORIENTED_EDGE('',*,*,#443,.T.);
#654=ORIENTED_EDGE('',*,*,#434,.T.);
#655=ORIENTED_EDGE('',*,*,#438,.T.);
#656=ORIENTED_EDGE('',*,*,#468,.T.);
#657=ORIENTED_EDGE('',*,*,#465,.T.);
#658=ORIENTED_EDGE('',*,*,#397,.T.);
#659=ORIENTED_EDGE('',*,*,#407,.T.);
#660=ORIENTED_EDGE('',*,*,#404,.T.);
#661=ORIENTED_EDGE('',*,*,#401,.T.);
#662=ORIENTED_EDGE('',*,*,#409,.T.);
#663=ORIENTED_EDGE('',*,*,#419,.T.);
#664=ORIENTED_EDGE('',*,*,#416,.T.);
#665=ORIENTED_EDGE('',*,*,#413,.T.);
#666=ORIENTED_EDGE('',*,*,#447,.T.);
#667=(
BOUNDED_SURFACE()
B_SPLINE_SURFACE(2,2,((#1090,#1091,#1092),(#1093,#1094,#1095),(#1096,#1097,
#1098),(#1099,#1100,#1101),(#1102,#1103,#1104)),.UNSPECIFIED.,.F.,.F.,.F.)
B_SPLINE_SURFACE_WITH_KNOTS((3,2,3),(3,3),(0.757845066776061,1.57877248661517,
2.39969990645429),(0.,1.34349384353424),.UNSPECIFIED.)
GEOMETRIC_REPRESENTATION_ITEM()
RATIONAL_B_SPLINE_SURFACE(((1.,0.78273565648682,1.),(0.916935885121019,
0.717718411996524,0.916935885121019),(1.,0.78273565648682,1.),(0.916935885120979,
0.717718411996492,0.916935885120979),(1.,0.78273565648682,1.)))
REPRESENTATION_ITEM('')
SURFACE()
);
#668=(
BOUNDED_SURFACE()
B_SPLINE_SURFACE(2,2,((#1113,#1114,#1115),(#1116,#1117,#1118),(#1119,#1120,
#1121)),.UNSPECIFIED.,.F.,.F.,.F.)
B_SPLINE_SURFACE_WITH_KNOTS((3,3),(3,3),(0.752046692250292,0.757845066776081),
(0.,1.34349384353424),.UNSPECIFIED.)
GEOMETRIC_REPRESENTATION_ITEM()
RATIONAL_B_SPLINE_SURFACE(((1.,0.78273565648682,1.),(0.999995797359551,
0.782732366930289,0.999995797359551),(1.,0.78273565648682,1.)))
REPRESENTATION_ITEM('')
SURFACE()
);
#669=(
BOUNDED_SURFACE()
B_SPLINE_SURFACE(2,2,((#1133,#1134,#1135),(#1136,#1137,#1138),(#1139,#1140,
#1141)),.UNSPECIFIED.,.F.,.F.,.F.)
B_SPLINE_SURFACE_WITH_KNOTS((3,3),(3,3),(2.38364768758017,2.38981390464819),
(0.,1.34349384353424),.UNSPECIFIED.)
GEOMETRIC_REPRESENTATION_ITEM()
RATIONAL_B_SPLINE_SURFACE(((1.,0.78273565648682,1.),(0.999995247224648,
0.782731936320085,0.999995247224648),(1.,0.78273565648682,1.)))
REPRESENTATION_ITEM('')
SURFACE()
);
#670=(
BOUNDED_SURFACE()
B_SPLINE_SURFACE(2,2,((#1147,#1148,#1149),(#1150,#1151,#1152),(#1153,#1154,
#1155)),.UNSPECIFIED.,.F.,.F.,.F.)
B_SPLINE_SURFACE_WITH_KNOTS((3,3),(3,3),(2.3582659591801,2.37714678892167),
(0.,1.34349384353424),.UNSPECIFIED.)
GEOMETRIC_REPRESENTATION_ITEM()
RATIONAL_B_SPLINE_SURFACE(((1.,0.78273565648682,1.),(0.999955439614476,
0.782700777484203,0.999955439614476),(1.,0.78273565648682,1.)))
REPRESENTATION_ITEM('')
SURFACE()
);
#671=(
BOUNDED_SURFACE()
B_SPLINE_SURFACE(2,2,((#1343,#1344,#1345),(#1346,#1347,#1348),(#1349,#1350,
#1351)),.UNSPECIFIED.,.F.,.F.,.F.)
B_SPLINE_SURFACE_WITH_KNOTS((3,3),(3,3),(2.38364768758017,2.38981390464819),
(0.,1.34349384353424),.UNSPECIFIED.)
GEOMETRIC_REPRESENTATION_ITEM()
RATIONAL_B_SPLINE_SURFACE(((1.,0.78273565648682,1.),(0.999995247224648,
0.782731936320085,0.999995247224648),(1.,0.78273565648682,1.)))
REPRESENTATION_ITEM('')
SURFACE()
);
#672=(
BOUNDED_SURFACE()
B_SPLINE_SURFACE(2,2,((#1355,#1356,#1357),(#1358,#1359,#1360),(#1361,#1362,
#1363),(#1364,#1365,#1366),(#1367,#1368,#1369)),.UNSPECIFIED.,.F.,.F.,.F.)
B_SPLINE_SURFACE_WITH_KNOTS((3,2,3),(3,3),(0.757845066776061,1.57877248661517,
2.39969990645429),(0.,1.34349384353424),.UNSPECIFIED.)
GEOMETRIC_REPRESENTATION_ITEM()
RATIONAL_B_SPLINE_SURFACE(((1.,0.78273565648682,1.),(0.916935885121019,
0.717718411996524,0.916935885121019),(1.,0.78273565648682,1.),(0.916935885120979,
0.717718411996492,0.916935885120979),(1.,0.78273565648682,1.)))
REPRESENTATION_ITEM('')
SURFACE()
);
#673=(
BOUNDED_SURFACE()
B_SPLINE_SURFACE(2,2,((#1375,#1376,#1377),(#1378,#1379,#1380),(#1381,#1382,
#1383)),.UNSPECIFIED.,.F.,.F.,.F.)
B_SPLINE_SURFACE_WITH_KNOTS((3,3),(3,3),(0.752046692250292,0.757845066776081),
(0.,1.34349384353424),.UNSPECIFIED.)
GEOMETRIC_REPRESENTATION_ITEM()
RATIONAL_B_SPLINE_SURFACE(((1.,0.78273565648682,1.),(0.999995797359551,
0.782732366930289,0.999995797359551),(1.,0.78273565648682,1.)))
REPRESENTATION_ITEM('')
SURFACE()
);
#674=(
BOUNDED_SURFACE()
B_SPLINE_SURFACE(2,2,((#1396,#1397,#1398),(#1399,#1400,#1401),(#1402,#1403,
#1404)),.UNSPECIFIED.,.F.,.F.,.F.)
B_SPLINE_SURFACE_WITH_KNOTS((3,3),(3,3),(2.3582659591801,2.37714678892167),
(0.,1.34349384353424),.UNSPECIFIED.)
GEOMETRIC_REPRESENTATION_ITEM()
RATIONAL_B_SPLINE_SURFACE(((1.,0.78273565648682,1.),(0.999955439614476,
0.782700777484203,0.999955439614476),(1.,0.78273565648682,1.)))
REPRESENTATION_ITEM('')
SURFACE()
);
#675=STYLED_ITEM('',(#1443),#722);
#676=STYLED_ITEM('',(#1443),#723);
#677=STYLED_ITEM('',(#1443),#724);
#678=STYLED_ITEM('',(#1443),#725);
#679=STYLED_ITEM('',(#1443),#726);
#680=STYLED_ITEM('',(#1443),#727);
#681=STYLED_ITEM('',(#1443),#728);
#682=STYLED_ITEM('',(#1443),#729);
#683=STYLED_ITEM('',(#1443),#730);
#684=STYLED_ITEM('',(#1443),#731);
#685=STYLED_ITEM('',(#1443),#732);
#686=STYLED_ITEM('',(#1443),#733);
#687=STYLED_ITEM('',(#1443),#734);
#688=STYLED_ITEM('',(#1443),#735);
#689=STYLED_ITEM('',(#1443),#736);
#690=STYLED_ITEM('',(#1443),#737);
#691=STYLED_ITEM('',(#1443),#738);
#692=STYLED_ITEM('',(#1443),#739);
#693=STYLED_ITEM('',(#1443),#740);
#694=STYLED_ITEM('',(#1443),#741);
#695=STYLED_ITEM('',(#1443),#742);
#696=STYLED_ITEM('',(#1443),#743);
#697=STYLED_ITEM('',(#1443),#744);
#698=STYLED_ITEM('',(#1443),#745);
#699=STYLED_ITEM('',(#1443),#746);
#700=STYLED_ITEM('',(#1443),#747);
#701=STYLED_ITEM('',(#1443),#748);
#702=STYLED_ITEM('',(#1443),#749);
#703=STYLED_ITEM('',(#1443),#750);
#704=STYLED_ITEM('',(#1443),#751);
#705=STYLED_ITEM('',(#1443),#752);
#706=STYLED_ITEM('',(#1443),#753);
#707=STYLED_ITEM('',(#1443),#754);
#708=STYLED_ITEM('',(#1443),#755);
#709=STYLED_ITEM('',(#1443),#756);
#710=STYLED_ITEM('',(#1443),#757);
#711=STYLED_ITEM('',(#1443),#758);
#712=STYLED_ITEM('',(#1443),#759);
#713=STYLED_ITEM('',(#1443),#760);
#714=STYLED_ITEM('',(#1443),#761);
#715=STYLED_ITEM('',(#1443),#762);
#716=STYLED_ITEM('',(#1443),#763);
#717=STYLED_ITEM('',(#1443),#764);
#718=STYLED_ITEM('',(#1443),#765);
#719=STYLED_ITEM('',(#1443),#766);
#720=STYLED_ITEM('',(#1442),#28);
#721=STYLED_ITEM('',(#1442),#27);
#722=ADVANCED_FACE('',(#164),#667,.F.);
#723=ADVANCED_FACE('',(#165),#668,.F.);
#724=ADVANCED_FACE('',(#166),#153,.F.);
#725=ADVANCED_FACE('',(#167),#669,.F.);
#726=ADVANCED_FACE('',(#168),#670,.F.);
#727=ADVANCED_FACE('',(#169),#29,.F.);
#728=ADVANCED_FACE('',(#170),#30,.T.);
#729=ADVANCED_FACE('',(#171),#31,.T.);
#730=ADVANCED_FACE('',(#172),#154,.F.);
#731=ADVANCED_FACE('',(#173),#32,.F.);
#732=ADVANCED_FACE('',(#174),#33,.F.);
#733=ADVANCED_FACE('',(#175),#155,.F.);
#734=ADVANCED_FACE('',(#176),#34,.F.);
#735=ADVANCED_FACE('',(#177),#156,.F.);
#736=ADVANCED_FACE('',(#178),#35,.T.);
#737=ADVANCED_FACE('',(#179),#36,.F.);
#738=ADVANCED_FACE('',(#180),#37,.F.);
#739=ADVANCED_FACE('',(#181,#19),#38,.F.);
#740=ADVANCED_FACE('',(#182),#39,.F.);
#741=ADVANCED_FACE('',(#183),#40,.F.);
#742=ADVANCED_FACE('',(#184),#41,.F.);
#743=ADVANCED_FACE('',(#185),#42,.F.);
#744=ADVANCED_FACE('',(#186),#43,.F.);
#745=ADVANCED_FACE('',(#187,#20),#44,.F.);
#746=ADVANCED_FACE('',(#188),#45,.F.);
#747=ADVANCED_FACE('',(#189),#46,.T.);
#748=ADVANCED_FACE('',(#190),#157,.F.);
#749=ADVANCED_FACE('',(#191),#47,.T.);
#750=ADVANCED_FACE('',(#192),#158,.F.);
#751=ADVANCED_FACE('',(#193),#159,.T.);
#752=ADVANCED_FACE('',(#194),#48,.T.);
#753=ADVANCED_FACE('',(#195),#160,.F.);
#754=ADVANCED_FACE('',(#196,#21),#49,.T.);
#755=ADVANCED_FACE('',(#197),#161,.F.);
#756=ADVANCED_FACE('',(#198),#50,.F.);
#757=ADVANCED_FACE('',(#199),#671,.T.);
#758=ADVANCED_FACE('',(#200),#672,.T.);
#759=ADVANCED_FACE('',(#201),#673,.T.);
#760=ADVANCED_FACE('',(#202),#674,.T.);
#761=ADVANCED_FACE('',(#203),#51,.T.);
#762=ADVANCED_FACE('',(#204),#162,.T.);
#763=ADVANCED_FACE('',(#205),#52,.T.);
#764=ADVANCED_FACE('',(#206),#163,.T.);
#765=ADVANCED_FACE('',(#207,#22),#53,.T.);
#766=ADVANCED_FACE('',(#208,#23,#24,#25),#54,.F.);
#767=CLOSED_SHELL('',(#722,#723,#724,#725,#726,#727,#728));
#768=CLOSED_SHELL('',(#729,#730,#731,#732));
#769=CLOSED_SHELL('',(#733,#734,#735,#736,#737,#738,#739,#740,#741,#742,
#743,#744,#745,#746,#747,#748,#749,#750,#751,#752,#753,#754,#755,#756,#757,
#758,#759,#760,#761,#762,#763,#764,#765,#766));
#770=DERIVED_UNIT_ELEMENT(#773,1.);
#771=DERIVED_UNIT_ELEMENT(#1428,-3.);
#772=DIMENSIONAL_EXPONENTS(0.,1.,0.,0.,0.,0.,0.);
#773=(
CONVERSION_BASED_UNIT('gram',#775)
MASS_UNIT()
NAMED_UNIT(#772)
);
#774=(
MASS_UNIT()
NAMED_UNIT(*)
SI_UNIT(.KILO.,.GRAM.)
);
#775=MASS_MEASURE_WITH_UNIT(MASS_MEASURE(0.001),#774);
#776=DERIVED_UNIT((#770,#771));
#777=MEASURE_REPRESENTATION_ITEM('density measure',
POSITIVE_RATIO_MEASURE(1.),#776);
#778=PROPERTY_DEFINITION_REPRESENTATION(#783,#780);
#779=PROPERTY_DEFINITION_REPRESENTATION(#784,#781);
#780=REPRESENTATION('material name',(#782),#1425);
#781=REPRESENTATION('density',(#777),#1425);
#782=DESCRIPTIVE_REPRESENTATION_ITEM('\X2\5E3889C4\X0\','\X2\5E3889C4\X0\');
#783=PROPERTY_DEFINITION('material property','material name',#1435);
#784=PROPERTY_DEFINITION('material property','density of part',#1435);
#785=DATE_TIME_ROLE('creation_date');
#786=APPLIED_DATE_AND_TIME_ASSIGNMENT(#787,#785,(#1435));
#787=DATE_AND_TIME(#788,#789);
#788=CALENDAR_DATE(2026,13,5);
#789=LOCAL_TIME(0,0,0.,#790);
#790=COORDINATED_UNIVERSAL_TIME_OFFSET(0,0,.BEHIND.);
#791=AXIS2_PLACEMENT_3D('',#1089,#874,#875);
#792=AXIS2_PLACEMENT_3D('',#1107,#876,#877);
#793=AXIS2_PLACEMENT_3D('',#1109,#878,#879);
#794=AXIS2_PLACEMENT_3D('',#1111,#880,#881);
#795=AXIS2_PLACEMENT_3D('',#1112,#882,#883);
#796=AXIS2_PLACEMENT_3D('',#1123,#884,#885);
#797=AXIS2_PLACEMENT_3D('',#1125,#886,#887);
#798=AXIS2_PLACEMENT_3D('',#1126,#888,#889);
#799=AXIS2_PLACEMENT_3D('',#1127,#890,#891);
#800=AXIS2_PLACEMENT_3D('',#1131,#893,#894);
#801=AXIS2_PLACEMENT_3D('',#1143,#896,#897);
#802=AXIS2_PLACEMENT_3D('',#1145,#898,#899);
#803=AXIS2_PLACEMENT_3D('',#1146,#900,#901);
#804=AXIS2_PLACEMENT_3D('',#1156,#902,#903);
#805=AXIS2_PLACEMENT_3D('',#1157,#904,#905);
#806=AXIS2_PLACEMENT_3D('',#1158,#906,#907);
#807=AXIS2_PLACEMENT_3D('',#1159,#908,#909);
#808=AXIS2_PLACEMENT_3D('',#1160,#910,#911);
#809=AXIS2_PLACEMENT_3D('',#1164,#913,#914);
#810=AXIS2_PLACEMENT_3D('',#1165,#915,#916);
#811=AXIS2_PLACEMENT_3D('',#1170,#919,#920);
#812=AXIS2_PLACEMENT_3D('',#1171,#921,#922);
#813=AXIS2_PLACEMENT_3D('',#1173,#924,#925);
#814=AXIS2_PLACEMENT_3D('',#1174,#926,#927);
#815=AXIS2_PLACEMENT_3D('',#1176,#928,#929);
#816=AXIS2_PLACEMENT_3D('',#1179,#931,#932);
#817=AXIS2_PLACEMENT_3D('',#1180,#933,#934);
#818=AXIS2_PLACEMENT_3D('',#1181,#935,#936);
#819=AXIS2_PLACEMENT_3D('',#1183,#937,#938);
#820=AXIS2_PLACEMENT_3D('',#1186,#940,#941);
#821=AXIS2_PLACEMENT_3D('',#1187,#942,#943);
#822=AXIS2_PLACEMENT_3D('',#1188,#944,#945);
#823=AXIS2_PLACEMENT_3D('',#1197,#950,#951);
#824=AXIS2_PLACEMENT_3D('',#1203,#955,#956);
#825=AXIS2_PLACEMENT_3D('',#1209,#960,#961);
#826=AXIS2_PLACEMENT_3D('',#1212,#964,#965);
#827=AXIS2_PLACEMENT_3D('',#1213,#966,#967);
#828=AXIS2_PLACEMENT_3D('',#1222,#972,#973);
#829=AXIS2_PLACEMENT_3D('',#1228,#977,#978);
#830=AXIS2_PLACEMENT_3D('',#1234,#982,#983);
#831=AXIS2_PLACEMENT_3D('',#1237,#986,#987);
#832=AXIS2_PLACEMENT_3D('',#1238,#988,#989);
#833=AXIS2_PLACEMENT_3D('',#1240,#990,#991);
#834=AXIS2_PLACEMENT_3D('',#1241,#992,#993);
#835=AXIS2_PLACEMENT_3D('',#1245,#995,#996);
#836=AXIS2_PLACEMENT_3D('',#1266,#997,#998);
#837=AXIS2_PLACEMENT_3D('',#1267,#999,#1000);
#838=AXIS2_PLACEMENT_3D('',#1269,#1001,#1002);
#839=AXIS2_PLACEMENT_3D('',#1270,#1003,#1004);
#840=AXIS2_PLACEMENT_3D('',#1274,#1006,#1007);
#841=AXIS2_PLACEMENT_3D('',#1292,#1008,#1009);
#842=AXIS2_PLACEMENT_3D('',#1293,#1010,#1011);
#843=AXIS2_PLACEMENT_3D('',#1294,#1012,#1013);
#844=AXIS2_PLACEMENT_3D('',#1298,#1015,#1016);
#845=AXIS2_PLACEMENT_3D('',#1311,#1018,#1019);
#846=AXIS2_PLACEMENT_3D('',#1322,#1026,#1027);
#847=AXIS2_PLACEMENT_3D('',#1324,#1028,#1029);
#848=AXIS2_PLACEMENT_3D('',#1327,#1031,#1032);
#849=AXIS2_PLACEMENT_3D('',#1328,#1033,#1034);
#850=AXIS2_PLACEMENT_3D('',#1330,#1035,#1036);
#851=AXIS2_PLACEMENT_3D('',#1331,#1037,#1038);
#852=AXIS2_PLACEMENT_3D('',#1333,#1039,#1040);
#853=AXIS2_PLACEMENT_3D('',#1335,#1042,#1043);
#854=AXIS2_PLACEMENT_3D('',#1337,#1044,#1045);
#855=AXIS2_PLACEMENT_3D('',#1339,#1046,#1047);
#856=AXIS2_PLACEMENT_3D('',#1341,#1048,#1049);
#857=AXIS2_PLACEMENT_3D('',#1342,#1050,#1051);
#858=AXIS2_PLACEMENT_3D('',#1353,#1052,#1053);
#859=AXIS2_PLACEMENT_3D('',#1354,#1054,#1055);
#860=AXIS2_PLACEMENT_3D('',#1371,#1056,#1057);
#861=AXIS2_PLACEMENT_3D('',#1373,#1058,#1059);
#862=AXIS2_PLACEMENT_3D('',#1374,#1060,#1061);
#863=AXIS2_PLACEMENT_3D('',#1395,#1062,#1063);
#864=AXIS2_PLACEMENT_3D('',#1405,#1064,#1065);
#865=AXIS2_PLACEMENT_3D('',#1406,#1066,#1067);
#866=AXIS2_PLACEMENT_3D('',#1408,#1069,#1070);
#867=AXIS2_PLACEMENT_3D('',#1411,#1072,#1073);
#868=AXIS2_PLACEMENT_3D('',#1412,#1074,#1075);
#869=AXIS2_PLACEMENT_3D('',#1418,#1079,#1080);
#870=AXIS2_PLACEMENT_3D('',#1419,#1081,#1082);
#871=AXIS2_PLACEMENT_3D('',#1420,#1083,#1084);
#872=AXIS2_PLACEMENT_3D('',#1421,#1085,#1086);
#873=AXIS2_PLACEMENT_3D('',#1422,#1087,#1088);
#874=DIRECTION('axis',(0.,0.,1.));
#875=DIRECTION('refdir',(1.,0.,0.));
#876=DIRECTION('center_axis',(0.,0.952900584523088,0.303282831719101));
#877=DIRECTION('ref_axis',(1.,0.,0.));
#878=DIRECTION('center_axis',(-1.,0.,0.));
#879=DIRECTION('ref_axis',(0.,0.59512983934174,-0.803629562874012));
#880=DIRECTION('center_axis',(0.,0.510218090061203,-0.860045057293104));
#881=DIRECTION('ref_axis',(1.,0.,0.));
#882=DIRECTION('center_axis',(-1.,0.,0.));
#883=DIRECTION('ref_axis',(0.,0.595258685494493,-0.803534129544831));
#884=DIRECTION('center_axis',(0.,0.952900584523088,0.303282831719101));
#885=DIRECTION('ref_axis',(1.,0.,0.));
#886=DIRECTION('center_axis',(-1.,0.,0.));
#887=DIRECTION('ref_axis',(0.,0.622569350255332,-0.782564632552899));
#888=DIRECTION('center_axis',(0.,0.510218090061203,-0.860045057293104));
#889=DIRECTION('ref_axis',(1.,0.,0.));
#890=DIRECTION('center_axis',(-1.,0.,0.));
#891=DIRECTION('ref_axis',(0.,1.,0.));
#892=DIRECTION('',(1.,0.,0.));
#893=DIRECTION('center_axis',(-1.,0.,0.));
#894=DIRECTION('ref_axis',(0.,0.622569350255332,-0.782564632552899));
#895=DIRECTION('',(1.,0.,0.));
#896=DIRECTION('center_axis',(0.,0.952900584523088,0.303282831719101));
#897=DIRECTION('ref_axis',(1.,0.,0.));
#898=DIRECTION('center_axis',(-1.,0.,0.));
#899=DIRECTION('ref_axis',(0.,0.595401370974486,-0.803428408410919));
#900=DIRECTION('center_axis',(0.,0.510218090061203,-0.860045057293104));
#901=DIRECTION('ref_axis',(1.,0.,0.));
#902=DIRECTION('center_axis',(0.,0.952900584523088,0.303282831719101));
#903=DIRECTION('ref_axis',(1.,0.,0.));
#904=DIRECTION('center_axis',(0.,0.510218090061203,-0.860045057293104));
#905=DIRECTION('ref_axis',(1.,0.,0.));
#906=DIRECTION('center_axis',(0.,0.510218090061203,-0.860045057293104));
#907=DIRECTION('ref_axis',(0.,0.860045057293104,0.510218090061203));
#908=DIRECTION('center_axis',(0.,0.952900584523088,0.303282831719101));
#909=DIRECTION('ref_axis',(0.,-0.303282831719101,0.952900584523088));
#910=DIRECTION('center_axis',(0.,0.,-1.));
#911=DIRECTION('ref_axis',(-1.,0.,0.));
#912=DIRECTION('',(-0.0680656694022644,0.997680843080001,0.));
#913=DIRECTION('center_axis',(0.,0.,1.));
#914=DIRECTION('ref_axis',(-0.994908285305696,-0.100784442400998,0.));
#915=DIRECTION('center_axis',(0.,0.,-1.));
#916=DIRECTION('ref_axis',(-0.994908285305696,-0.100784442400998,0.));
#917=DIRECTION('',(0.,0.,1.));
#918=DIRECTION('',(0.,0.,-1.));
#919=DIRECTION('center_axis',(0.,0.,-1.));
#920=DIRECTION('ref_axis',(-0.994908285305696,-0.100784442400998,0.));
#921=DIRECTION('center_axis',(0.997680843080001,0.0680656694022644,0.));
#922=DIRECTION('ref_axis',(0.0680656694022644,-0.997680843080001,0.));
#923=DIRECTION('',(0.0680656694022644,-0.997680843080001,0.));
#924=DIRECTION('center_axis',(0.,0.,-1.));
#925=DIRECTION('ref_axis',(-1.,0.,0.));
#926=DIRECTION('center_axis',(0.,1.,0.));
#927=DIRECTION('ref_axis',(1.,0.,0.));
#928=DIRECTION('center_axis',(0.,-0.999999999999993,-1.16789797584386E-7));
#929=DIRECTION('ref_axis',(0.,1.16789797584386E-7,-0.999999999999993));
#930=DIRECTION('',(0.,-1.,0.));
#931=DIRECTION('center_axis',(0.,1.,0.));
#932=DIRECTION('ref_axis',(1.,0.,0.));
#933=DIRECTION('center_axis',(0.,-1.,0.));
#934=DIRECTION('ref_axis',(0.,0.,-1.));
#935=DIRECTION('center_axis',(0.,-1.,0.));
#936=DIRECTION('ref_axis',(1.,0.,0.));
#937=DIRECTION('center_axis',(0.,-1.,0.));
#938=DIRECTION('ref_axis',(1.,0.,0.));
#939=DIRECTION('',(0.,-1.,0.));
#940=DIRECTION('center_axis',(0.,-1.,0.));
#941=DIRECTION('ref_axis',(1.,0.,0.));
#942=DIRECTION('center_axis',(0.,1.,0.));
#943=DIRECTION('ref_axis',(0.,0.,1.));
#944=DIRECTION('center_axis',(0.,1.,-3.28019433434978E-10));
#945=DIRECTION('ref_axis',(0.,3.28019433434978E-10,1.));
#946=DIRECTION('',(0.,3.28019433434978E-10,1.));
#947=DIRECTION('',(1.,0.,0.));
#948=DIRECTION('',(0.,3.28019433434978E-10,1.));
#949=DIRECTION('',(1.,0.,0.));
#950=DIRECTION('center_axis',(0.,0.,-1.));
#951=DIRECTION('ref_axis',(0.,1.,0.));
#952=DIRECTION('',(0.,1.,0.));
#953=DIRECTION('',(1.,0.,0.));
#954=DIRECTION('',(0.,1.,0.));
#955=DIRECTION('center_axis',(0.,-1.,0.));
#956=DIRECTION('ref_axis',(0.,0.,-1.));
#957=DIRECTION('',(0.,0.,-1.));
#958=DIRECTION('',(1.,0.,0.));
#959=DIRECTION('',(0.,0.,-1.));
#960=DIRECTION('center_axis',(0.,0.,1.));
#961=DIRECTION('ref_axis',(0.,-1.,0.));
#962=DIRECTION('',(0.,-1.,0.));
#963=DIRECTION('',(0.,-1.,0.));
#964=DIRECTION('center_axis',(1.,0.,0.));
#965=DIRECTION('ref_axis',(0.,0.,-1.));
#966=DIRECTION('center_axis',(0.,0.,1.));
#967=DIRECTION('ref_axis',(0.,-1.,0.));
#968=DIRECTION('',(0.,-1.,0.));
#969=DIRECTION('',(1.,0.,0.));
#970=DIRECTION('',(0.,-1.,0.));
#971=DIRECTION('',(1.,0.,0.));
#972=DIRECTION('center_axis',(0.,0.999999999999993,1.16789797925358E-7));
#973=DIRECTION('ref_axis',(0.,-1.16789797925358E-7,0.999999999999993));
#974=DIRECTION('',(0.,-1.16789797925358E-7,0.999999999999993));
#975=DIRECTION('',(1.,0.,0.));
#976=DIRECTION('',(0.,-1.16789797925358E-7,0.999999999999993));
#977=DIRECTION('center_axis',(0.,1.16789798291874E-7,-0.999999999999993));
#978=DIRECTION('ref_axis',(0.,0.999999999999993,1.16789798291874E-7));
#979=DIRECTION('',(0.,0.999999999999993,1.16789798291874E-7));
#980=DIRECTION('',(1.,0.,0.));
#981=DIRECTION('',(0.,0.999999999999993,1.16789798291874E-7));
#982=DIRECTION('center_axis',(0.,-0.999999999999993,-1.16789797584386E-7));
#983=DIRECTION('ref_axis',(0.,1.16789797584386E-7,-0.999999999999993));
#984=DIRECTION('',(0.,1.16789797584386E-7,-0.999999999999993));
#985=DIRECTION('',(0.,1.16789797584386E-7,-0.999999999999993));
#986=DIRECTION('center_axis',(1.,0.,0.));
#987=DIRECTION('ref_axis',(0.,0.,-1.));
#988=DIRECTION('center_axis',(0.,1.,0.));
#989=DIRECTION('ref_axis',(0.,0.,1.));
#990=DIRECTION('center_axis',(0.,-1.,0.));
#991=DIRECTION('ref_axis',(-0.938180837871498,0.,0.346145511960988));
#992=DIRECTION('center_axis',(0.,1.,0.));
#993=DIRECTION('ref_axis',(-0.938180837871498,0.,0.346145511960988));
#994=DIRECTION('',(0.,1.,0.));
#995=DIRECTION('center_axis',(0.,-1.,0.));
#996=DIRECTION('ref_axis',(-0.938180837871498,0.,0.346145511960988));
#997=DIRECTION('center_axis',(0.,-1.,0.));
#998=DIRECTION('ref_axis',(-0.938180837871498,0.,0.346145511960988));
#999=DIRECTION('center_axis',(0.,1.,0.));
#1000=DIRECTION('ref_axis',(0.,0.,1.));
#1001=DIRECTION('center_axis',(0.,-1.,0.));
#1002=DIRECTION('ref_axis',(-0.97254112343997,0.,0.232731096371156));
#1003=DIRECTION('center_axis',(0.,1.,0.));
#1004=DIRECTION('ref_axis',(-0.97254112343997,0.,0.232731096371156));
#1005=DIRECTION('',(0.,1.,0.));
#1006=DIRECTION('center_axis',(0.,-1.,0.));
#1007=DIRECTION('ref_axis',(-0.97254112343997,0.,0.232731096371156));
#1008=DIRECTION('center_axis',(0.,-0.952900584523088,0.303282831719101));
#1009=DIRECTION('ref_axis',(3.96897643878851E-16,0.303282831719101,0.952900584523088));
#1010=DIRECTION('center_axis',(0.,-1.,0.));
#1011=DIRECTION('ref_axis',(-0.97254112343997,0.,0.232731096371156));
#1012=DIRECTION('center_axis',(-1.,0.,0.));
#1013=DIRECTION('ref_axis',(0.,1.,0.));
#1014=DIRECTION('',(-1.,0.,0.));
#1015=DIRECTION('center_axis',(-1.,0.,0.));
#1016=DIRECTION('ref_axis',(0.,1.,0.));
#1017=DIRECTION('',(-1.,0.,0.));
#1018=DIRECTION('center_axis',(0.,1.,0.));
#1019=DIRECTION('ref_axis',(0.,0.,-1.));
#1020=DIRECTION('',(-1.,0.,0.));
#1021=DIRECTION('',(0.,0.,-1.));
#1022=DIRECTION('',(-1.,0.,0.));
#1023=DIRECTION('',(-1.,0.,0.));
#1024=DIRECTION('',(0.,0.,1.));
#1025=DIRECTION('',(-1.,0.,0.));
#1026=DIRECTION('center_axis',(-1.,0.,0.));
#1027=DIRECTION('ref_axis',(0.,0.,-1.));
#1028=DIRECTION('center_axis',(-1.,0.,0.));
#1029=DIRECTION('ref_axis',(0.,0.,-1.));
#1030=DIRECTION('',(-1.,0.,0.));
#1031=DIRECTION('center_axis',(-1.,0.,0.));
#1032=DIRECTION('ref_axis',(0.,0.,-1.));
#1033=DIRECTION('center_axis',(1.,0.,0.));
#1034=DIRECTION('ref_axis',(0.,0.,-1.));
#1035=DIRECTION('center_axis',(1.,0.,0.));
#1036=DIRECTION('ref_axis',(0.,0.,1.));
#1037=DIRECTION('center_axis',(1.,0.,0.));
#1038=DIRECTION('ref_axis',(0.,0.,1.));
#1039=DIRECTION('center_axis',(1.,0.,0.));
#1040=DIRECTION('ref_axis',(0.,0.,1.));
#1041=DIRECTION('',(1.,0.,0.));
#1042=DIRECTION('center_axis',(0.,-0.952900584523088,0.303282831719101));
#1043=DIRECTION('ref_axis',(0.,-0.303282831719101,-0.952900584523088));
#1044=DIRECTION('center_axis',(0.,-0.952900584523088,0.303282831719101));
#1045=DIRECTION('ref_axis',(1.,0.,0.));
#1046=DIRECTION('center_axis',(0.,-0.952900584523088,0.303282831719101));
#1047=DIRECTION('ref_axis',(1.,0.,0.));
#1048=DIRECTION('center_axis',(0.,-0.952900584523088,0.303282831719101));
#1049=DIRECTION('ref_axis',(1.,0.,0.));
#1050=DIRECTION('center_axis',(0.,-0.952900584523088,0.303282831719101));
#1051=DIRECTION('ref_axis',(1.,0.,0.));
#1052=DIRECTION('center_axis',(0.,-0.510218090061203,-0.860045057293104));
#1053=DIRECTION('ref_axis',(1.,0.,0.));
#1054=DIRECTION('center_axis',(1.,0.,0.));
#1055=DIRECTION('ref_axis',(0.,0.595401370974486,0.803428408410919));
#1056=DIRECTION('center_axis',(1.,0.,0.));
#1057=DIRECTION('ref_axis',(0.,0.595258685494493,0.803534129544831));
#1058=DIRECTION('center_axis',(0.,-0.510218090061203,-0.860045057293104));
#1059=DIRECTION('ref_axis',(1.,0.,0.));
#1060=DIRECTION('center_axis',(1.,0.,0.));
#1061=DIRECTION('ref_axis',(0.,0.59512983934174,0.803629562874012));
#1062=DIRECTION('center_axis',(0.,-0.510218090061203,-0.860045057293104));
#1063=DIRECTION('ref_axis',(1.,0.,0.));
#1064=DIRECTION('center_axis',(0.,-0.510218090061203,-0.860045057293104));
#1065=DIRECTION('ref_axis',(1.,0.,0.));
#1066=DIRECTION('center_axis',(0.,-0.510218090061203,-0.860045057293104));
#1067=DIRECTION('ref_axis',(0.,0.860045057293104,-0.510218090061203));
#1068=DIRECTION('',(-1.,0.,0.));
#1069=DIRECTION('center_axis',(-1.,0.,0.));
#1070=DIRECTION('ref_axis',(0.,1.,0.));
#1071=DIRECTION('',(-1.,0.,0.));
#1072=DIRECTION('center_axis',(1.,0.,0.));
#1073=DIRECTION('ref_axis',(0.,1.,0.));
#1074=DIRECTION('center_axis',(0.,-1.,0.));
#1075=DIRECTION('ref_axis',(0.,0.,1.));
#1076=DIRECTION('',(0.,0.,-1.));
#1077=DIRECTION('',(0.,0.,1.));
#1078=DIRECTION('',(-1.,0.,0.));
#1079=DIRECTION('center_axis',(-1.,0.,0.));
#1080=DIRECTION('ref_axis',(0.,1.,0.));
#1081=DIRECTION('center_axis',(1.,0.,0.));
#1082=DIRECTION('ref_axis',(0.,1.,0.));
#1083=DIRECTION('center_axis',(-1.,0.,0.));
#1084=DIRECTION('ref_axis',(0.,1.,0.));
#1085=DIRECTION('center_axis',(1.,0.,0.));
#1086=DIRECTION('ref_axis',(0.,0.,-1.));
#1087=DIRECTION('center_axis',(1.,0.,0.));
#1088=DIRECTION('ref_axis',(0.,0.,-1.));
#1089=CARTESIAN_POINT('',(0.,0.,0.));
#1090=CARTESIAN_POINT('Ctrl Pts',(-22.6282069245091,14.9686110658226,-23.0584631412032));
#1091=CARTESIAN_POINT('Ctrl Pts',(-22.6282069245091,-0.834600742608345,
-34.7615702980765));
#1092=CARTESIAN_POINT('Ctrl Pts',(-22.6282069245091,-15.7979357211636,-22.0021491941652));
#1093=CARTESIAN_POINT('Ctrl Pts',(-22.9423006803585,15.0692698236044,-23.3747282874496));
#1094=CARTESIAN_POINT('Ctrl Pts',(-22.9423006803585,-0.985404884823677,
-35.1578693761119));
#1095=CARTESIAN_POINT('Ctrl Pts',(-22.9423006803585,-16.0833823671633,-22.1714892087393));
#1096=CARTESIAN_POINT('Ctrl Pts',(-23.3992442563486,15.0681644388768,-23.3712552199268));
#1097=CARTESIAN_POINT('Ctrl Pts',(-23.3992442563486,-0.983748828268476,
-35.1535174155068));
#1098=CARTESIAN_POINT('Ctrl Pts',(-23.3992442563486,-16.0802477331783,-22.1696296003951));
#1099=CARTESIAN_POINT('Ctrl Pts',(-23.8561878323387,15.0670590541492,-23.3677821524041));
#1100=CARTESIAN_POINT('Ctrl Pts',(-23.8561878323387,-0.982092771713277,
-35.1491654549018));
#1101=CARTESIAN_POINT('Ctrl Pts',(-23.8561878323387,-16.0771130991933,-22.167769992051));
#1102=CARTESIAN_POINT('Ctrl Pts',(-24.1649473167785,14.9648935622857,-23.0467829175876));
#1103=CARTESIAN_POINT('Ctrl Pts',(-24.1649473167785,-0.82903128253935,-34.7469342817306));
#1104=CARTESIAN_POINT('Ctrl Pts',(-24.1649473167785,-15.7873936785289,-21.9958951719918));
#1105=CARTESIAN_POINT('',(-22.6282069898101,14.9686110470803,-23.0584630823156));
#1106=CARTESIAN_POINT('',(-24.1649473167785,14.9648935622857,-23.0467829175876));
#1107=CARTESIAN_POINT('Origin',(-23.3908690775282,14.7497161955365,-22.3707056157858));
#1108=CARTESIAN_POINT('',(-22.6282069898101,-15.7979356680144,-22.0021491626347));
#1109=CARTESIAN_POINT('Origin',(-22.6282069898101,0.249601237542997,-3.18274750357718));
#1110=CARTESIAN_POINT('',(-24.1649473167785,-15.7873936785289,-21.9958951719919));
#1111=CARTESIAN_POINT('Origin',(-23.3908690775282,-15.177196821473,-21.6338984692281));
#1112=CARTESIAN_POINT('Origin',(-24.1649473167785,0.249601237543008,-3.1827475035772));
#1113=CARTESIAN_POINT('Ctrl Pts',(-20.3667833456334,14.2396628535553,-20.7681416824537));
#1114=CARTESIAN_POINT('Ctrl Pts',(-20.3667833456334,0.257489129081161,-31.8916610043095));
#1115=CARTESIAN_POINT('Ctrl Pts',(-20.3667833456334,-13.7307949488703,-20.775826680265));
#1116=CARTESIAN_POINT('Ctrl Pts',(-21.4940110546117,14.6051311489541,-21.9164261083677));
#1117=CARTESIAN_POINT('Ctrl Pts',(-21.4940110546117,-0.290045273379589,
-33.3305298291328));
#1118=CARTESIAN_POINT('Ctrl Pts',(-21.4940110546117,-14.7671846425215,-21.3906604794594));
#1119=CARTESIAN_POINT('Ctrl Pts',(-22.6282070551112,14.968611028338,-23.0584630234281));
#1120=CARTESIAN_POINT('Ctrl Pts',(-22.6282070551112,-0.834600686449858,
-34.7615701504973));
#1121=CARTESIAN_POINT('Ctrl Pts',(-22.6282070551112,-15.7979356148651,-22.0021491311041));
#1122=CARTESIAN_POINT('',(-20.3667833456334,14.2396628535553,-20.7681416824538));
#1123=CARTESIAN_POINT('Origin',(-436.013540409643,-103.678851107546,349.726357602949));
#1124=CARTESIAN_POINT('',(-20.3667833456334,-13.7307949488703,-20.7758266802651));
#1125=CARTESIAN_POINT('Origin',(-20.3667833456334,0.249601237543005,-3.18274750357717));
#1126=CARTESIAN_POINT('Origin',(-436.013540409643,320.660817397731,177.600582017383));
#1127=CARTESIAN_POINT('Origin',(-23.3908690775282,0.249601237543005,-3.18274750357719));
#1128=CARTESIAN_POINT('',(-26.414954809423,14.2396628535553,-20.7681416824538));
#1129=CARTESIAN_POINT('',(-26.414954809423,14.2396628535553,-20.7681416824538));
#1130=CARTESIAN_POINT('',(-26.414954809423,-13.7307949488703,-20.7758266802651));
#1131=CARTESIAN_POINT('Origin',(-26.414954809423,0.249601237543005,-3.18274750357717));
#1132=CARTESIAN_POINT('',(-26.414954809423,-13.7307949488703,-20.7758266802651));
#1133=CARTESIAN_POINT('Ctrl Pts',(-24.1782009474664,14.9607803353682,-23.0338593494721));
#1134=CARTESIAN_POINT('Ctrl Pts',(-24.1782009474664,-0.822868960743373,
-34.7307402806214));
#1135=CARTESIAN_POINT('Ctrl Pts',(-24.1782009474664,-15.7757294492684,-21.9889754173524));
#1136=CARTESIAN_POINT('Ctrl Pts',(-25.3002432532603,14.6012673404713,-21.9042862014009));
#1137=CARTESIAN_POINT('Ctrl Pts',(-25.3002432532603,-0.284256623323076,
-33.3153178021501));
#1138=CARTESIAN_POINT('Ctrl Pts',(-25.3002432532603,-14.7562277104424,-21.3841603258791));
#1139=CARTESIAN_POINT('Ctrl Pts',(-26.414954809423,14.2396628535553,-20.7681416824538));
#1140=CARTESIAN_POINT('Ctrl Pts',(-26.414954809423,0.257489129081137,-31.8916610043095));
#1141=CARTESIAN_POINT('Ctrl Pts',(-26.414954809423,-13.7307949488703,-20.775826680265));
#1142=CARTESIAN_POINT('',(-24.1782009474664,14.9607803353682,-23.0338593494721));
#1143=CARTESIAN_POINT('Origin',(360.30429881982,-95.4132417985996,323.75619668982));
#1144=CARTESIAN_POINT('',(-24.1782009474664,-15.7757294492685,-21.9889754173524));
#1145=CARTESIAN_POINT('Origin',(-24.1782009474664,0.249601237543004,-3.18274750357719));
#1146=CARTESIAN_POINT('Origin',(360.30429881982,297.221322351538,163.695200789906));
#1147=CARTESIAN_POINT('Ctrl Pts',(-24.1649473167785,14.9648935622857,-23.0467829175876));
#1148=CARTESIAN_POINT('Ctrl Pts',(-24.1649473167785,-0.829031282539372,
-34.7469342817306));
#1149=CARTESIAN_POINT('Ctrl Pts',(-24.1649473167785,-15.7873936785289,-21.9958951719919));
#1150=CARTESIAN_POINT('Ctrl Pts',(-24.171638151108,14.9628559227282,-23.0403807486472));
#1151=CARTESIAN_POINT('Ctrl Pts',(-24.171638151108,-0.825978547810815,-34.7389119824712));
#1152=CARTESIAN_POINT('Ctrl Pts',(-24.171638151108,-15.7816153698128,-21.9924672148029));
#1153=CARTESIAN_POINT('Ctrl Pts',(-24.1782009474539,14.9607803353646,-23.0338593494608));
#1154=CARTESIAN_POINT('Ctrl Pts',(-24.1782009474539,-0.822868960737992,
-34.7307402806072));
#1155=CARTESIAN_POINT('Ctrl Pts',(-24.1782009474539,-15.7757294492582,-21.9889754173464));
#1156=CARTESIAN_POINT('Origin',(-23.4532824036818,14.7499501591395,-22.37144071857));
#1157=CARTESIAN_POINT('Origin',(-23.4532824036818,-15.1778602920663,-21.6342920703494));
#1158=CARTESIAN_POINT('Origin',(-23.3908690775282,-14.9055357042324,-21.4727366612425));
#1159=CARTESIAN_POINT('Origin',(-23.3908690775282,14.6539187112,-22.0697143651349));
#1160=CARTESIAN_POINT('Origin',(-19.5557046740861,-2.01327346814041,16.7147411704063));
#1161=CARTESIAN_POINT('',(-19.5494532585144,-2.10490435361862,16.7147411704063));
#1162=CARTESIAN_POINT('',(-19.5619560896578,-1.92164258266219,16.7147411704063));
#1163=CARTESIAN_POINT('',(-19.5619560896578,-1.92164258266219,16.7147411704063));
#1164=CARTESIAN_POINT('Origin',(-4.46117375297097,-0.983465831173989,16.7147411704063));
#1165=CARTESIAN_POINT('Origin',(-4.46117375297097,-0.983465831173989,-14.6602588295937));
#1166=CARTESIAN_POINT('',(-19.5619560896578,-1.92164258266219,-23.1602588295937));
#1167=CARTESIAN_POINT('',(-19.5619560896578,-1.92164258266219,-14.6602588295937));
#1168=CARTESIAN_POINT('',(-19.5494532585144,-2.10490435361862,-23.1602588295937));
#1169=CARTESIAN_POINT('',(-19.5494532585144,-2.10490435361862,-14.6602588295937));
#1170=CARTESIAN_POINT('Origin',(-4.46117375297097,-0.983465831173989,-23.1602588295937));
#1171=CARTESIAN_POINT('Origin',(-19.5619560896578,-1.92164258266219,-14.6602588295937));
#1172=CARTESIAN_POINT('',(-19.5619560896578,-1.92164258266219,-23.1602588295937));
#1173=CARTESIAN_POINT('Origin',(-19.5557046740861,-2.01327346814041,-23.1602588295937));
#1174=CARTESIAN_POINT('Origin',(-26.0043888564831,-5.07813185928583,12.8326399088451));
#1175=CARTESIAN_POINT('',(-27.5043888564831,-5.0781348989706,12.8326399088451));
#1176=CARTESIAN_POINT('Origin',(-26.0043888564831,-5.07813507415529,12.8326399088451));
#1177=CARTESIAN_POINT('',(-27.5043888564831,-13.0781318592858,12.8326399088451));
#1178=CARTESIAN_POINT('',(-27.5043888564831,-5.07813185928583,12.8326399088451));
#1179=CARTESIAN_POINT('Origin',(-26.0043888564831,-13.0781318592858,12.8326399088451));
#1180=CARTESIAN_POINT('Origin',(-26.0043888564831,-13.0781318592858,12.8326399088451));
#1181=CARTESIAN_POINT('Origin',(-26.0043888564831,-5.07813185928583,-19.1531584621021));
#1182=CARTESIAN_POINT('',(-27.5043888564831,-5.07813185928583,-19.1531584621021));
#1183=CARTESIAN_POINT('Origin',(-26.0043888564831,-5.07813185928583,-19.1531584621021));
#1184=CARTESIAN_POINT('',(-27.5043888564831,-13.0781318592858,-19.1531584621021));
#1185=CARTESIAN_POINT('',(-27.5043888564831,-5.07813185928583,-19.1531584621021));
#1186=CARTESIAN_POINT('Origin',(-26.0043888564831,-13.0781318592858,-19.1531584621021));
#1187=CARTESIAN_POINT('Origin',(-26.0043888564831,-13.0781318592858,-19.1531584621021));
#1188=CARTESIAN_POINT('Origin',(-30.3910501003265,5.11341631412506,-22.894332408905));
#1189=CARTESIAN_POINT('',(-30.3910501003265,5.11341631412506,-22.894332408905));
#1190=CARTESIAN_POINT('',(-30.3910501003265,5.11341631681482,-14.6943318843842));
#1191=CARTESIAN_POINT('',(-30.3910501003265,5.1134163208498,-2.39330137876392));
#1192=CARTESIAN_POINT('',(-22.3910501003265,5.11341631412506,-22.894332408905));
#1193=CARTESIAN_POINT('',(-30.3910501003265,5.11341631412506,-22.894332408905));
#1194=CARTESIAN_POINT('',(-22.3910501003265,5.11341631681482,-14.6943318843842));
#1195=CARTESIAN_POINT('',(-22.3910501003265,5.11341631681482,-14.6943318843842));
#1196=CARTESIAN_POINT('',(-30.3910501003265,5.11341631681482,-14.6943318843842));
#1197=CARTESIAN_POINT('Origin',(-30.3910501003265,-5.07813185928583,-22.894332408905));
#1198=CARTESIAN_POINT('',(-30.3910501003265,-5.07813185928583,-22.894332408905));
#1199=CARTESIAN_POINT('',(-30.3910501003265,-2.41426531087142,-22.894332408905));
#1200=CARTESIAN_POINT('',(-22.3910501003265,-5.07813185928583,-22.894332408905));
#1201=CARTESIAN_POINT('',(-30.3910501003265,-5.07813185928583,-22.894332408905));
#1202=CARTESIAN_POINT('',(-22.3910501003265,5.11341631412506,-22.894332408905));
#1203=CARTESIAN_POINT('Origin',(-30.3910501003265,-5.07813185928583,-14.6943318843842));
#1204=CARTESIAN_POINT('',(-30.3910501003265,-5.07813185928583,-14.6943318843842));
#1205=CARTESIAN_POINT('',(-30.3910501003265,-5.07813185928583,1.70669888429423));
#1206=CARTESIAN_POINT('',(-22.3910501003265,-5.07813185928583,-14.6943318843842));
#1207=CARTESIAN_POINT('',(-30.3910501003265,-5.07813185928583,-14.6943318843842));
#1208=CARTESIAN_POINT('',(-22.3910501003265,-5.07813185928583,-22.894332408905));
#1209=CARTESIAN_POINT('Origin',(-30.3910501003265,5.11341631681482,-14.6943318843842));
#1210=CARTESIAN_POINT('',(-30.3910501003265,2.68150877717891,-14.6943318843842));
#1211=CARTESIAN_POINT('',(-22.3910501003265,-5.07813185928583,-14.6943318843842));
#1212=CARTESIAN_POINT('Origin',(-22.3910501003265,0.0176422287644951,-18.7943321466446));
#1213=CARTESIAN_POINT('Origin',(-30.3910501003265,5.11341536613065,16.8012509660198));
#1214=CARTESIAN_POINT('',(-30.3910501003265,5.11341536613065,16.8012509660198));
#1215=CARTESIAN_POINT('',(-30.3910501003265,-5.07813553764858,16.8012509660198));
#1216=CARTESIAN_POINT('',(-30.3910501003265,2.68150830183683,16.8012509660198));
#1217=CARTESIAN_POINT('',(-22.3910501003265,5.11341536613065,16.8012509660198));
#1218=CARTESIAN_POINT('',(-30.3910501003265,5.11341536613065,16.8012509660198));
#1219=CARTESIAN_POINT('',(-22.3910501003265,-5.07813553764858,16.8012509660198));
#1220=CARTESIAN_POINT('',(-22.3910501003265,-10.1653333803005,16.8012509660198));
#1221=CARTESIAN_POINT('',(-30.3910501003265,-5.07813553764858,16.8012509660198));
#1222=CARTESIAN_POINT('Origin',(-30.3910501003265,5.11341631681483,8.66112066606597));
#1223=CARTESIAN_POINT('',(-30.3910501003265,5.11341631681483,8.66112066606597));
#1224=CARTESIAN_POINT('',(-30.3910501003265,5.11341576518102,13.3844254435412));
#1225=CARTESIAN_POINT('',(-22.3910501003265,5.11341631681483,8.66112066606597));
#1226=CARTESIAN_POINT('',(-30.3910501003265,5.11341631681483,8.66112066606597));
#1227=CARTESIAN_POINT('',(-22.3910501003265,5.11341536613051,16.8012521562889));
#1228=CARTESIAN_POINT('Origin',(-30.3910501003265,-5.07813458696427,8.6611194757968));
#1229=CARTESIAN_POINT('',(-30.3910501003265,-5.07813458696427,8.6611194757968));
#1230=CARTESIAN_POINT('',(-30.3910501003265,-2.41426612307682,8.66111978690946));
#1231=CARTESIAN_POINT('',(-22.3910501003265,-5.07813458696427,8.6611194757968));
#1232=CARTESIAN_POINT('',(-30.3910501003265,-5.07813458696427,8.6611194757968));
#1233=CARTESIAN_POINT('',(-22.3910501003265,5.11341631681483,8.66112066606597));
#1234=CARTESIAN_POINT('Origin',(-30.3910501003265,-5.07813553764858,16.8012509660198));
#1235=CARTESIAN_POINT('',(-30.3910501003265,-5.07813561394023,17.4544899983835));
#1236=CARTESIAN_POINT('',(-22.3910501003265,-5.07813458696427,8.6611194757968));
#1237=CARTESIAN_POINT('Origin',(-22.3910501003265,0.0176403895831245,12.7311852209083));
#1238=CARTESIAN_POINT('Origin',(-26.0043888564831,8.24739122390747,-19.1531584621021));
#1239=CARTESIAN_POINT('',(-23.2863722793115,8.24739122390747,-20.155981373896));
#1240=CARTESIAN_POINT('Origin',(-26.0043888564831,8.24739122390747,-19.1531584621021));
#1241=CARTESIAN_POINT('Origin',(-26.0043888564831,14.2473912239075,-19.1531584621021));
#1242=CARTESIAN_POINT('',(-23.2863722793115,14.2473669621204,-20.155981373896));
#1243=CARTESIAN_POINT('',(-23.2863722793115,14.2473912239075,-20.155981373896));
#1244=CARTESIAN_POINT('',(-23.5853490230583,14.2473669621204,-20.7473711801868));
#1245=CARTESIAN_POINT('Origin',(-26.0043888564831,14.2473669621204,-19.1531584621021));
#1246=CARTESIAN_POINT('',(-28.4234286899079,14.2473669621204,-20.7473711801868));
#1247=CARTESIAN_POINT('Ctrl Pts',(-28.4234286899079,14.2473669621204,-20.7473711801868));
#1248=CARTESIAN_POINT('Ctrl Pts',(-28.2694950882323,13.9535201692895,-20.9809482367061));
#1249=CARTESIAN_POINT('Ctrl Pts',(-28.0808719583487,13.6707345531377,-21.1934077954536));
#1250=CARTESIAN_POINT('Ctrl Pts',(-27.6478319977624,13.1694376351426,-21.5553463415665));
#1251=CARTESIAN_POINT('Ctrl Pts',(-27.374777265075,12.9176311013349,-21.7282581841856));
#1252=CARTESIAN_POINT('Ctrl Pts',(-26.8991974569766,12.6393507613682,-21.9138729113303));
#1253=CARTESIAN_POINT('Ctrl Pts',(-26.7296360018224,12.5629670906621,-21.9638245480406));
#1254=CARTESIAN_POINT('Ctrl Pts',(-26.3757053595524,12.458089466735,-22.032010808162));
#1255=CARTESIAN_POINT('Ctrl Pts',(-26.1913352155774,12.429616137178,-22.0502721820308));
#1256=CARTESIAN_POINT('Ctrl Pts',(-26.0043888564831,12.429616137178,-22.0502721820308));
#1257=CARTESIAN_POINT('Ctrl Pts',(-25.8174424973888,12.429616137178,-22.0502721820308));
#1258=CARTESIAN_POINT('Ctrl Pts',(-25.6330723534138,12.458089466735,-22.032010808162));
#1259=CARTESIAN_POINT('Ctrl Pts',(-25.2791417111438,12.5629670906621,-21.9638245480406));
#1260=CARTESIAN_POINT('Ctrl Pts',(-25.1095802559897,12.6393507613682,-21.9138729113303));
#1261=CARTESIAN_POINT('Ctrl Pts',(-24.6340004478912,12.9176311013349,-21.7282581841856));
#1262=CARTESIAN_POINT('Ctrl Pts',(-24.3609457152039,13.1694376351426,-21.5553463415665));
#1263=CARTESIAN_POINT('Ctrl Pts',(-23.9279057549879,13.670734552709,-21.1934077957631));
#1264=CARTESIAN_POINT('Ctrl Pts',(-23.7392826244857,13.9535201697634,-20.9809482363294));
#1265=CARTESIAN_POINT('Ctrl Pts',(-23.5853490230583,14.2473669621204,-20.7473711801868));
#1266=CARTESIAN_POINT('Origin',(-26.0043888564831,14.2473669621204,-19.1531584621021));
#1267=CARTESIAN_POINT('Origin',(-25.8923118480861,8.24739122390747,12.8582828370206));
#1268=CARTESIAN_POINT('',(-22.9759608047843,8.24739122390747,12.1603940183863));
#1269=CARTESIAN_POINT('Origin',(-25.8923118480861,8.24739122390747,12.8582828370206));
#1270=CARTESIAN_POINT('Origin',(-25.8923118480861,14.2473912239075,12.8582828370206));
#1271=CARTESIAN_POINT('',(-22.9759608047843,14.2473669621204,12.1603940183863));
#1272=CARTESIAN_POINT('',(-22.9759608047843,14.2473912239075,12.1603940183863));
#1273=CARTESIAN_POINT('',(-28.4198839499341,14.2473669621204,14.4718290808272));
#1274=CARTESIAN_POINT('Origin',(-25.8923118480861,14.2473669621204,12.8582828370206));
#1275=CARTESIAN_POINT('',(-26.3912039308239,12.3665725064664,15.8151830552768));
#1276=CARTESIAN_POINT('Ctrl Pts',(-26.3912039308239,12.3665725064663,15.8151830552769));
#1277=CARTESIAN_POINT('Ctrl Pts',(-26.4143570738337,12.372682809226,15.8112766266234));
#1278=CARTESIAN_POINT('Ctrl Pts',(-26.4373964457803,12.3791974621626,15.8071079167835));
#1279=CARTESIAN_POINT('Ctrl Pts',(-26.6434381996929,12.4411979319118,15.7673765561055));
#1280=CARTESIAN_POINT('Ctrl Pts',(-26.8187394468095,12.521344219733,15.7156985226718));
#1281=CARTESIAN_POINT('Ctrl Pts',(-27.3103193412894,12.8128030516059,15.5238349388889));
#1282=CARTESIAN_POINT('Ctrl Pts',(-27.592421587225,13.0758680873672,15.3452922087369));
#1283=CARTESIAN_POINT('Ctrl Pts',(-28.0520679994787,13.6125066312711,14.9615336404954));
#1284=CARTESIAN_POINT('Ctrl Pts',(-28.2559434173256,13.9242950129291,14.7286370391822));
#1285=CARTESIAN_POINT('Ctrl Pts',(-28.4198839499341,14.2473669621204,14.4718290808272));
#1286=CARTESIAN_POINT('',(-25.1254345350588,14.6564843832841,15.7572570345153));
#1287=CARTESIAN_POINT('Ctrl Pts',(-25.1254345350621,14.6564843832852,15.7572570345104));
#1288=CARTESIAN_POINT('Ctrl Pts',(-25.5508045088337,13.8073297885783,15.8697818658143));
#1289=CARTESIAN_POINT('Ctrl Pts',(-25.9813647208987,13.018969395448,15.8843316642711));
#1290=CARTESIAN_POINT('Ctrl Pts',(-26.391203930824,12.3665725064662,15.8151830552768));
#1291=CARTESIAN_POINT('',(-23.3647397462382,14.2473669621204,14.4718290808272));
#1292=CARTESIAN_POINT('Origin',(-25.8923118480861,13.7338182437342,12.8582828370206));
#1293=CARTESIAN_POINT('Origin',(-25.8923118480861,14.2473669621204,12.8582828370206));
#1294=CARTESIAN_POINT('Origin',(-18.3910501003265,0.249601237543005,-3.1377710496798));
#1295=CARTESIAN_POINT('',(-30.3910501003265,14.2473669621204,14.4718290808272));
#1296=CARTESIAN_POINT('',(-18.3910501003265,14.2473669621204,14.4718290808272));
#1297=CARTESIAN_POINT('',(-30.3910501003265,-13.7526421482476,14.4682688855694));
#1298=CARTESIAN_POINT('Origin',(-30.3910501003265,0.249601237543005,-3.1377710496798));
#1299=CARTESIAN_POINT('',(-26.3912039308239,-13.7526421482476,14.4682688855693));
#1300=CARTESIAN_POINT('',(-18.3910501003265,-13.7526421482476,14.4682688855694));
#1301=CARTESIAN_POINT('Ctrl Pts',(-26.3912039308239,-13.7526421482476,14.4682688855694));
#1302=CARTESIAN_POINT('Ctrl Pts',(-26.3912039308239,-11.4600747486027,16.2915685501287));
#1303=CARTESIAN_POINT('Ctrl Pts',(-26.3912039308239,-8.83329457420003,17.6496470838505));
#1304=CARTESIAN_POINT('Ctrl Pts',(-26.3912039308239,-3.20701583473332,19.2824775528859));
#1305=CARTESIAN_POINT('Ctrl Pts',(-26.3912039308239,-0.261307560977421,
19.5416187389542));
#1306=CARTESIAN_POINT('Ctrl Pts',(-26.3912039308239,4.75957061005353,19.0025149578286));
#1307=CARTESIAN_POINT('Ctrl Pts',(-26.3912039308239,6.82541449230885,18.4791382639502));
#1308=CARTESIAN_POINT('Ctrl Pts',(-26.3912039308239,10.0350694096252,17.1624524900885));
#1309=CARTESIAN_POINT('Ctrl Pts',(-26.3912039308239,11.2328554046202,16.539989197585));
#1310=CARTESIAN_POINT('Ctrl Pts',(-26.3912039308239,12.3665725064664,15.8151830552768));
#1311=CARTESIAN_POINT('Origin',(-18.3910501003265,14.2473669621204,14.4718290808272));
#1312=CARTESIAN_POINT('',(-30.3910501003265,14.2473669621204,-20.7473711801868));
#1313=CARTESIAN_POINT('',(-18.3910501003265,14.2473669621204,-20.7473711801868));
#1314=CARTESIAN_POINT('',(-30.3910501003265,14.2473669621204,-33.6178707999978));
#1315=CARTESIAN_POINT('',(-20.3905468750919,14.2473669621205,14.4718290808272));
#1316=CARTESIAN_POINT('',(-18.3910501003265,14.2473669621204,14.4718290808272));
#1317=CARTESIAN_POINT('',(-18.3910501003265,14.2473669621204,14.4718290808272));
#1318=CARTESIAN_POINT('',(-18.3910501003265,14.2473669621204,14.4718290808272));
#1319=CARTESIAN_POINT('',(-18.3910501003265,14.2473669621204,-20.7473711801868));
#1320=CARTESIAN_POINT('',(-18.3910501003265,14.2473669621204,-33.6178707999978));
#1321=CARTESIAN_POINT('',(-18.3910501003265,14.2473669621204,-20.7473711801868));
#1322=CARTESIAN_POINT('Origin',(-18.3910501003265,-8.02358257770538,-3.03525882959366));
#1323=CARTESIAN_POINT('',(-18.3910501003265,-8.02358257770538,-0.0352588295936607));
#1324=CARTESIAN_POINT('Origin',(-18.3910501003265,-8.02358257770538,-3.03525882959366));
#1325=CARTESIAN_POINT('',(-26.3910501003265,-8.02358257770538,-0.0352588295936607));
#1326=CARTESIAN_POINT('',(-18.3910501003265,-8.02358257770538,-0.0352588295936607));
#1327=CARTESIAN_POINT('Origin',(-26.3910501003265,-8.02358257770538,-3.03525882959366));
#1328=CARTESIAN_POINT('Origin',(-26.3910501003265,-8.02358257770538,-3.03525882959366));
#1329=CARTESIAN_POINT('',(-26.3910501003265,-8.02358257770538,-4.53525882959366));
#1330=CARTESIAN_POINT('Origin',(-26.3910501003265,-8.02358257770538,-3.03525882959366));
#1331=CARTESIAN_POINT('Origin',(-30.8910512924194,-8.02358257770538,-3.03525882959366));
#1332=CARTESIAN_POINT('',(-30.3910501003265,-8.02358257770538,-4.53525882959366));
#1333=CARTESIAN_POINT('Origin',(-30.3910501003265,-8.02358257770538,-3.03525882959366));
#1334=CARTESIAN_POINT('',(-30.8910512924194,-8.02358257770538,-4.53525882959366));
#1335=CARTESIAN_POINT('Origin',(-23.3908690775282,14.6539187112,15.7491958118779));
#1336=CARTESIAN_POINT('',(-24.1782009474664,14.9607803353682,16.7133407962151));
#1337=CARTESIAN_POINT('Origin',(360.30429881982,-95.4132417985996,-330.076715243077));
#1338=CARTESIAN_POINT('',(-24.1649473167785,14.9648935622857,16.7262643643306));
#1339=CARTESIAN_POINT('Origin',(-23.4532824036818,14.7499501591395,16.050922165313));
#1340=CARTESIAN_POINT('',(-22.6282069898101,14.9686110470803,16.7379445290587));
#1341=CARTESIAN_POINT('Origin',(-23.3908690775282,14.7497161955365,16.0501870625288));
#1342=CARTESIAN_POINT('Origin',(-436.013540409643,-103.678851107546,-356.046876156206));
#1343=CARTESIAN_POINT('Ctrl Pts',(-24.1782009474664,14.9607803353682,16.7133407962151));
#1344=CARTESIAN_POINT('Ctrl Pts',(-24.1782009474664,-0.822868960743373,
28.4102217273644));
#1345=CARTESIAN_POINT('Ctrl Pts',(-24.1782009474664,-15.7757294492684,15.6684568640954));
#1346=CARTESIAN_POINT('Ctrl Pts',(-25.3002432532603,14.6012673404713,15.5837676481439));
#1347=CARTESIAN_POINT('Ctrl Pts',(-25.3002432532603,-0.284256623323076,
26.9947992488932));
#1348=CARTESIAN_POINT('Ctrl Pts',(-25.3002432532603,-14.7562277104424,15.0636417726221));
#1349=CARTESIAN_POINT('Ctrl Pts',(-26.414954809423,14.2396628535553,14.4476231291968));
#1350=CARTESIAN_POINT('Ctrl Pts',(-26.414954809423,0.257489129081137,25.5711424510525));
#1351=CARTESIAN_POINT('Ctrl Pts',(-26.414954809423,-13.7307949488703,14.4553081270081));
#1352=CARTESIAN_POINT('',(-24.1782009474664,-15.7757294492685,15.6684568640955));
#1353=CARTESIAN_POINT('Origin',(360.30429881982,297.221322351538,-170.015719343163));
#1354=CARTESIAN_POINT('Origin',(-24.1782009474664,0.249601237543004,-3.1377710496798));
#1355=CARTESIAN_POINT('Ctrl Pts',(-22.6282069245091,14.9686110658226,16.7379445879462));
#1356=CARTESIAN_POINT('Ctrl Pts',(-22.6282069245091,-0.834600742608345,
28.4410517448195));
#1357=CARTESIAN_POINT('Ctrl Pts',(-22.6282069245091,-15.7979357211636,15.6816306409082));
#1358=CARTESIAN_POINT('Ctrl Pts',(-22.9423006803585,15.0692698236044,17.0542097341926));
#1359=CARTESIAN_POINT('Ctrl Pts',(-22.9423006803585,-0.985404884823677,
28.8373508228549));
#1360=CARTESIAN_POINT('Ctrl Pts',(-22.9423006803585,-16.0833823671633,15.8509706554823));
#1361=CARTESIAN_POINT('Ctrl Pts',(-23.3992442563486,15.0681644388768,17.0507366666698));
#1362=CARTESIAN_POINT('Ctrl Pts',(-23.3992442563486,-0.983748828268476,
28.8329988622498));
#1363=CARTESIAN_POINT('Ctrl Pts',(-23.3992442563486,-16.0802477331783,15.8491110471382));
#1364=CARTESIAN_POINT('Ctrl Pts',(-23.8561878323387,15.0670590541492,17.0472635991471));
#1365=CARTESIAN_POINT('Ctrl Pts',(-23.8561878323387,-0.982092771713277,
28.8286469016448));
#1366=CARTESIAN_POINT('Ctrl Pts',(-23.8561878323387,-16.0771130991933,15.847251438794));
#1367=CARTESIAN_POINT('Ctrl Pts',(-24.1649473167785,14.9648935622857,16.7262643643306));
#1368=CARTESIAN_POINT('Ctrl Pts',(-24.1649473167785,-0.82903128253935,28.4264157284736));
#1369=CARTESIAN_POINT('Ctrl Pts',(-24.1649473167785,-15.7873936785289,15.6753766187348));
#1370=CARTESIAN_POINT('',(-24.1649473167785,-15.7873936785289,15.6753766187349));
#1371=CARTESIAN_POINT('Origin',(-24.1649473167785,0.249601237543008,-3.13777104967979));
#1372=CARTESIAN_POINT('',(-22.6282069898101,-15.7979356680144,15.6816306093777));
#1373=CARTESIAN_POINT('Origin',(-23.3908690775282,-15.177196821473,15.3133799159711));
#1374=CARTESIAN_POINT('Origin',(-22.6282069898101,0.249601237542997,-3.13777104967981));
#1375=CARTESIAN_POINT('Ctrl Pts',(-20.3667833456334,14.2396628535553,14.4476231291967));
#1376=CARTESIAN_POINT('Ctrl Pts',(-20.3667833456334,0.257489129081161,25.5711424510525));
#1377=CARTESIAN_POINT('Ctrl Pts',(-20.3667833456334,-13.7307949488703,14.455308127008));
#1378=CARTESIAN_POINT('Ctrl Pts',(-21.4940110546117,14.6051311489541,15.5959075551107));
#1379=CARTESIAN_POINT('Ctrl Pts',(-21.4940110546117,-0.290045273379589,
27.0100112758758));
#1380=CARTESIAN_POINT('Ctrl Pts',(-21.4940110546117,-14.7671846425215,15.0701419262024));
#1381=CARTESIAN_POINT('Ctrl Pts',(-22.6282070551112,14.968611028338,16.7379444701711));
#1382=CARTESIAN_POINT('Ctrl Pts',(-22.6282070551112,-0.834600686449858,
28.4410515972403));
#1383=CARTESIAN_POINT('Ctrl Pts',(-22.6282070551112,-15.7979356148651,15.6816305778471));
#1384=CARTESIAN_POINT('',(-20.3905468750919,-13.7526421482476,14.4682688855694));
#1385=CARTESIAN_POINT('Ctrl Pts',(-20.3905468750917,14.2473669621204,14.4718290808272));
#1386=CARTESIAN_POINT('Ctrl Pts',(-20.3905468750917,11.954335972275,16.2945456875176));
#1387=CARTESIAN_POINT('Ctrl Pts',(-20.3905468750919,9.32721052401395,17.6519561882468));
#1388=CARTESIAN_POINT('Ctrl Pts',(-20.3905468750919,3.70051673837476,19.2833558441971));
#1389=CARTESIAN_POINT('Ctrl Pts',(-20.3905468750919,0.754742660372457,19.5417479295259));
#1390=CARTESIAN_POINT('Ctrl Pts',(-20.3905468750919,-4.26599825445065,19.0013673586497));
#1391=CARTESIAN_POINT('Ctrl Pts',(-20.3905468750919,-6.33170897543823,18.4774653384741));
#1392=CARTESIAN_POINT('Ctrl Pts',(-20.3905468750919,-10.255026952694,16.8668502869049));
#1393=CARTESIAN_POINT('Ctrl Pts',(-20.3905468750917,-12.092999449729,15.7881977897168));
#1394=CARTESIAN_POINT('Ctrl Pts',(-20.3905468750917,-13.7526421482476,14.4682688855694));
#1395=CARTESIAN_POINT('Origin',(-436.013540409643,320.660817397731,-183.92110057064));
#1396=CARTESIAN_POINT('Ctrl Pts',(-24.1649473167785,14.9648935622857,16.7262643643306));
#1397=CARTESIAN_POINT('Ctrl Pts',(-24.1649473167785,-0.829031282539372,
28.4264157284736));
#1398=CARTESIAN_POINT('Ctrl Pts',(-24.1649473167785,-15.7873936785289,15.6753766187349));
#1399=CARTESIAN_POINT('Ctrl Pts',(-24.171638151108,14.9628559227282,16.7198621953902));
#1400=CARTESIAN_POINT('Ctrl Pts',(-24.171638151108,-0.825978547810815,28.4183934292142));
#1401=CARTESIAN_POINT('Ctrl Pts',(-24.171638151108,-15.7816153698128,15.671948661546));
#1402=CARTESIAN_POINT('Ctrl Pts',(-24.1782009474539,14.9607803353646,16.7133407962038));
#1403=CARTESIAN_POINT('Ctrl Pts',(-24.1782009474539,-0.822868960737992,
28.4102217273502));
#1404=CARTESIAN_POINT('Ctrl Pts',(-24.1782009474539,-15.7757294492582,15.6684568640894));
#1405=CARTESIAN_POINT('Origin',(-23.4532824036818,-15.1778602920663,15.3137735170924));
#1406=CARTESIAN_POINT('Origin',(-23.3908690775282,-14.9055357042324,15.1522181079855));
#1407=CARTESIAN_POINT('',(-18.3910501003265,-13.7526421482476,14.4682688855694));
#1408=CARTESIAN_POINT('Origin',(-18.3910501003265,0.249601237543005,-3.1377710496798));
#1409=CARTESIAN_POINT('',(-18.3910501003265,-13.7526421482476,14.4682688855694));
#1410=CARTESIAN_POINT('',(-18.3910501003265,-13.7526421482476,14.4682688855694));
#1411=CARTESIAN_POINT('Origin',(-18.3910501003265,0.249601237543005,-3.1377710496798));
#1412=CARTESIAN_POINT('Origin',(-18.3910501003265,-13.7526421482476,-20.743810984929));
#1413=CARTESIAN_POINT('',(-18.3910501003265,-13.7526421482476,-20.743810984929));
#1414=CARTESIAN_POINT('',(-18.3910501003265,-13.7526421482476,14.4682688855694));
#1415=CARTESIAN_POINT('',(-30.3910501003265,-13.7526421482476,-20.743810984929));
#1416=CARTESIAN_POINT('',(-30.3910501003265,-13.7526421482476,14.4682688855694));
#1417=CARTESIAN_POINT('',(-18.3910501003265,-13.7526421482476,-20.743810984929));
#1418=CARTESIAN_POINT('Origin',(-18.3910501003265,0.249601237543005,-3.1377710496798));
#1419=CARTESIAN_POINT('Origin',(-18.3910501003265,0.249601237543005,-3.1377710496798));
#1420=CARTESIAN_POINT('Origin',(-30.3910501003265,0.249601237543005,-3.1377710496798));
#1421=CARTESIAN_POINT('Origin',(-18.3910501003265,0.249601237542999,18.1077296529726));
#1422=CARTESIAN_POINT('Origin',(-30.3910501003265,0.249601237542999,18.1077296529726));
#1423=UNCERTAINTY_MEASURE_WITH_UNIT(LENGTH_MEASURE(0.01),#1427,
'DISTANCE_ACCURACY_VALUE',
'Maximum model space distance between geometric entities at asserted c
onnectivities');
#1424=UNCERTAINTY_MEASURE_WITH_UNIT(LENGTH_MEASURE(0.01),#1427,
'DISTANCE_ACCURACY_VALUE',
'Maximum model space distance between geometric entities at asserted c
onnectivities');
#1425=(
GEOMETRIC_REPRESENTATION_CONTEXT(3)
GLOBAL_UNCERTAINTY_ASSIGNED_CONTEXT((#1423))
GLOBAL_UNIT_ASSIGNED_CONTEXT((#1427,#1429,#1430))
REPRESENTATION_CONTEXT('','3D')
);
#1426=(
GEOMETRIC_REPRESENTATION_CONTEXT(3)
GLOBAL_UNCERTAINTY_ASSIGNED_CONTEXT((#1424))
GLOBAL_UNIT_ASSIGNED_CONTEXT((#1427,#1429,#1430))
REPRESENTATION_CONTEXT('','3D')
);
#1427=(
LENGTH_UNIT()
NAMED_UNIT(*)
SI_UNIT(.MILLI.,.METRE.)
);
#1428=(
LENGTH_UNIT()
NAMED_UNIT(*)
SI_UNIT(.CENTI.,.METRE.)
);
#1429=(
NAMED_UNIT(*)
PLANE_ANGLE_UNIT()
SI_UNIT($,.RADIAN.)
);
#1430=(
NAMED_UNIT(*)
SI_UNIT($,.STERADIAN.)
SOLID_ANGLE_UNIT()
);
#1431=SHAPE_DEFINITION_REPRESENTATION(#1432,#1433);
#1432=PRODUCT_DEFINITION_SHAPE('',$,#1435);
#1433=SHAPE_REPRESENTATION('',(#791),#1425);
#1434=PRODUCT_DEFINITION_CONTEXT('part definition',#1439,'design');
#1435=PRODUCT_DEFINITION('\X2\5B876811\X0\L6\X2\8FDE63A559045927\X0\',
'\X2\5B876811\X0\L6\X2\8FDE63A55904\X0\',#1436,#1434);
#1436=PRODUCT_DEFINITION_FORMATION('',$,#1441);
#1437=PRODUCT_RELATED_PRODUCT_CATEGORY('\X2\5B876811\X0\L6\X2\8FDE63A55904\X0\',
'\X2\5B876811\X0\L6\X2\8FDE63A55904\X0\',(#1441));
#1438=APPLICATION_PROTOCOL_DEFINITION('international standard',
'automotive_design',2009,#1439);
#1439=APPLICATION_CONTEXT(
'Core Data for Automotive Mechanical Design Process');
#1440=PRODUCT_CONTEXT('part definition',#1439,'mechanical');
#1441=PRODUCT('\X2\5B876811\X0\L6\X2\8FDE63A559045927\X0\',
'\X2\5B876811\X0\L6\X2\8FDE63A55904\X0\',$,(#1440));
#1442=PRESENTATION_STYLE_ASSIGNMENT((#1444));
#1443=PRESENTATION_STYLE_ASSIGNMENT((#1445));
#1444=SURFACE_STYLE_USAGE(.BOTH.,#1450);
#1445=SURFACE_STYLE_USAGE(.BOTH.,#1451);
#1446=SURFACE_STYLE_RENDERING_WITH_PROPERTIES($,#1458,(#1448));
#1447=SURFACE_STYLE_RENDERING_WITH_PROPERTIES($,#1459,(#1449));
#1448=SURFACE_STYLE_TRANSPARENT(0.);
#1449=SURFACE_STYLE_TRANSPARENT(0.);
#1450=SURFACE_SIDE_STYLE('',(#1452,#1446));
#1451=SURFACE_SIDE_STYLE('',(#1453,#1447));
#1452=SURFACE_STYLE_FILL_AREA(#1454);
#1453=SURFACE_STYLE_FILL_AREA(#1455);
#1454=FILL_AREA_STYLE('',(#1456));
#1455=FILL_AREA_STYLE('',(#1457));
#1456=FILL_AREA_STYLE_COLOUR('',#1458);
#1457=FILL_AREA_STYLE_COLOUR('',#1459);
#1458=COLOUR_RGB('',0.749019607843137,0.749019607843137,0.749019607843137);
#1459=COLOUR_RGB('',0.737254901960784,0.313725490196078,0.184313725490196);
ENDSEC;
END-ISO-10303-21;
